<svg version="1.1" id="Layer_1" xmlns="http://www.w3.org/2000/svg" xmlns:xlink="http://www.w3.org/1999/xlink" x="0px" y="0px" viewBox="0 0 232 232" enable-background="new 0 0 232 232" reserveAspectRatio="xMidYMid meet" xml:space="preserve">
<path fill="#482513" d="M232,116c0,3.7-6.7,7.1-7,10.7c-0.4,3.7,5.5,8.3,4.8,11.9c-0.7,3.6-7.9,5.7-9,9.2c-1.1,3.5,3.8,9.2,2.4,12.6
	c-1.4,3.4-8.9,4-10.6,7.2c-1.7,3.3,1.9,9.8-0.1,12.8c-2.1,3.1-9.5,2.2-11.8,5c-2.3,2.9,0,9.9-2.6,12.6c-2.6,2.6-9.7,0.3-12.6,2.6
	c-2.8,2.3-1.9,9.8-5,11.8c-3.1,2.1-9.6-1.6-12.8,0.1c-3.2,1.7-3.8,9.2-7.2,10.6c-3.4,1.4-9.1-3.5-12.6-2.4c-3.5,1.1-5.5,8.3-9.2,9
	c-3.6,0.7-8.2-5.2-11.9-4.8c-3.6,0.4-7,7-10.7,7c-3.7,0-7.1-6.7-10.7-7c-3.7-0.4-8.3,5.5-11.9,4.8c-3.6-0.7-5.7-7.9-9.2-9
	c-3.5-1.1-9.2,3.8-12.6,2.4c-3.4-1.4-4-8.9-7.2-10.6c-3.3-1.8-9.8,1.9-12.8-0.1c-3.1-2.1-2.2-9.5-5-11.8c-2.9-2.3-9.9,0-12.6-2.6
	c-2.6-2.6-0.3-9.7-2.6-12.6c-2.3-2.8-9.8-1.9-11.8-5c-2.1-3.1,1.6-9.6-0.1-12.8c-1.7-3.2-9.2-3.8-10.6-7.2
	c-1.4-3.4,3.5-9.1,2.4-12.6c-1.1-3.5-8.3-5.5-9-9.2c-0.7-3.6,5.2-8.2,4.8-11.9c-0.4-3.6-7-7-7-10.7c0-3.7,6.7-7.1,7-10.7
	c0.4-3.7-5.5-8.3-4.8-11.9c0.7-3.6,7.9-5.7,9-9.2c1.1-3.6-3.8-9.2-2.4-12.6c1.4-3.4,8.9-4,10.6-7.2c1.7-3.3-1.9-9.8,0.1-12.8
	c2.1-3.1,9.5-2.2,11.8-5c2.4-2.9,0-10,2.6-12.6c2.6-2.6,9.7-0.3,12.6-2.6c2.9-2.3,1.9-9.8,5-11.8c3.1-2,9.6,1.6,12.8-0.1
	c3.2-1.7,3.8-9.2,7.2-10.6c3.4-1.4,9.1,3.5,12.6,2.4c3.5-1.1,5.5-8.3,9.2-9c3.6-0.7,8.2,5.2,11.9,4.8c3.6-0.4,7-7,10.7-7
	c3.7,0,7.1,6.7,10.7,7c3.7,0.4,8.3-5.5,11.9-4.8c3.6,0.7,5.7,7.9,9.2,9c3.6,1.1,9.2-3.8,12.6-2.4c3.4,1.4,4,8.9,7.2,10.6
	c3.3,1.7,9.8-1.9,12.8,0.1c3.1,2.1,2.2,9.5,5,11.8c2.9,2.3,9.9,0,12.6,2.6c2.6,2.6,0.3,9.7,2.6,12.6c2.3,2.8,9.8,1.9,11.8,5
	c2,3.1-1.6,9.6,0.1,12.8c1.7,3.2,9.2,3.8,10.6,7.2c1.4,3.4-3.5,9.1-2.4,12.6c1.1,3.5,8.3,5.5,9,9.2c0.7,3.6-5.2,8.2-4.8,11.9
	C225.3,108.9,232,112.3,232,116z"/>
<path fill="#754E39" d="M116,207.9c-50.7,0-91.9-41.2-91.9-91.9c0-50.7,41.2-91.9,91.9-91.9c50.7,0,91.9,41.2,91.9,91.9
	C207.9,166.7,166.7,207.9,116,207.9z M116,25.1c-50.1,0-90.9,40.8-90.9,90.9c0,50.1,40.8,90.9,90.9,90.9c50.1,0,90.9-40.8,90.9-90.9
	C206.9,65.9,166.1,25.1,116,25.1z"/>
<path fill="#754E39" d="M116,14.6C60,14.6,14.6,60,14.6,116c0,56,45.4,101.4,101.4,101.4c56,0,101.4-45.4,101.4-101.4
	C217.4,60,172,14.6,116,14.6z M116,214.5c-54.4,0-98.5-44.1-98.5-98.5c0-54.4,44.1-98.5,98.5-98.5c54.4,0,98.5,44.1,98.5,98.5
	C214.5,170.4,170.4,214.5,116,214.5z"/>
<g>
	<path fill="#F37425" d="M87.7,132.4l-6.4,21.9c-0.1,0.8-0.4,1-1,1H69.7c-0.7,0-0.9-0.4-0.7-1.3c5.6-19.2,15.1-51.3,21.8-73.1
		c0.3-1.3,0.6-2.5,0.8-6.9c0-0.5,0.3-0.8,0.6-0.8h14.4c0.5,0,0.6,0.1,0.8,0.6c7.7,25.8,16.2,54.2,24.1,80.2c0.2,0.8,0,1.1-0.6,1.1
		h-11.7c-0.5,0-0.7-0.3-0.9-0.8l-6.7-22.1H87.7z M108.8,120c-2.1-8.4-7.2-25.4-9.3-34.2h-0.1c-1.6,8.3-5.8,22.5-9,34.2H108.8z"/>
</g>
<g>
	<g>
		<path fill="#F37425" d="M142.7,79c0-4.6,3.2-7.7,7.6-7.7c4.6,0,7.4,3.1,7.4,7.7c0,4.7-3,7.7-7.5,7.7S142.7,83.7,142.7,79z
			 M143.5,95.9c0-0.7,0.2-1,0.8-1h11.8c0.7,0,0.9,0.1,0.9,1v58.4c0,0.6-0.2,1-0.9,1h-11.6c-0.7,0-1-0.2-1-1.1V95.9z"/>
	</g>
</g>
</svg>
