<svg version="1.1" id="Layer_1" xmlns="http://www.w3.org/2000/svg" xmlns:xlink="http://www.w3.org/1999/xlink" x="0px" y="0px" viewBox="0 0 232 232" enable-background="new 0 0 232 232" reserveAspectRatio="xMidYMid meet" xml:space="preserve">
<path fill="#FEC313" d="M232,115.999c0,3.729-6.666,7.103-7.021,10.741c-0.357,3.704,5.523,8.3,4.811,11.893
	c-0.721,3.645-7.914,5.655-8.979,9.164c-1.076,3.55,3.793,9.215,2.385,12.605c-1.42,3.424-8.867,3.981-10.604,7.223
	c-1.746,3.262,1.916,9.768-0.135,12.828c-2.055,3.072-9.469,2.168-11.807,5.014c-2.346,2.854-0.02,9.949-2.631,12.557
	c-2.605,2.61-9.701,0.284-12.555,2.628c-2.848,2.34-1.941,9.751-5.014,11.81c-3.059,2.05-9.566-1.616-12.83,0.133
	c-3.24,1.734-3.797,9.186-7.217,10.604c-3.395,1.406-9.057-3.46-12.605-2.382c-3.51,1.062-5.52,8.256-9.164,8.979
	c-3.59,0.711-8.191-5.175-11.895-4.812c-3.637,0.354-7.008,7.018-10.739,7.018c-3.73,0-7.104-6.664-10.74-7.018
	c-3.704-0.362-8.304,5.523-11.895,4.812c-3.645-0.723-5.654-7.916-9.166-8.98c-3.548-1.076-9.21,3.79-12.605,2.384
	c-3.421-1.419-3.978-8.87-7.222-10.604c-3.262-1.749-9.769,1.915-12.827-0.133c-3.073-2.059-2.166-9.472-5.015-11.812
	c-2.853-2.345-9.949-0.016-12.557-2.626c-2.608-2.609-0.28-9.704-2.626-12.557c-2.34-2.85-9.753-1.945-11.809-5.014
	c-2.049-3.062,1.613-9.566-0.131-12.828c-1.739-3.243-9.186-3.801-10.605-7.223c-1.408-3.393,3.458-9.056,2.381-12.605
	c-1.062-3.509-8.257-5.52-8.979-9.164c-0.71-3.593,5.174-8.188,4.812-11.895C6.664,123.102,0,119.728,0,115.999
	c0-3.729,6.664-7.102,7.019-10.74c0.361-3.704-5.522-8.304-4.812-11.894c0.722-3.644,7.917-5.654,8.979-9.164
	c1.077-3.551-3.789-9.214-2.381-12.607c1.42-3.422,8.866-3.98,10.605-7.222c1.746-3.262-1.916-9.769,0.133-12.829
	c2.054-3.068,9.471-2.164,11.809-5.012c2.346-2.853,0.02-9.948,2.626-12.557c2.609-2.608,9.706-0.279,12.557-2.626
	c2.851-2.339,1.945-9.753,5.015-11.812c3.061-2.047,9.565,1.615,12.827-0.131c3.242-1.737,3.803-9.186,7.222-10.604
	c3.394-1.406,9.058,3.459,12.605,2.382c3.512-1.062,5.52-8.257,9.166-8.978c3.589-0.711,8.188,5.174,11.893,4.812
	c3.637-0.355,7.01-7.02,10.74-7.02c3.731,0,7.102,6.664,10.739,7.02c3.703,0.361,8.305-5.523,11.895-4.812
	c3.645,0.721,5.654,7.916,9.164,8.98c3.549,1.074,9.211-3.791,12.607-2.385c3.42,1.42,3.977,8.868,7.221,10.605
	c3.26,1.746,9.77-1.918,12.828,0.133c3.07,2.056,2.164,9.471,5.01,11.812c2.854,2.345,9.951,0.016,12.561,2.624
	c2.607,2.61,0.279,9.704,2.625,12.559c2.34,2.846,9.752,1.941,11.807,5.012c2.051,3.059-1.611,9.565,0.135,12.829
	c1.736,3.239,9.184,3.798,10.604,7.218c1.408,3.396-3.461,9.059-2.385,12.607c1.064,3.51,8.26,5.521,8.979,9.164
	c0.713,3.59-5.168,8.189-4.811,11.894C225.333,108.897,232,112.27,232,115.999z"/>
<path fill="#FFD87F" d="M115.999,207.883c-50.66,0-91.88-41.221-91.88-91.884s41.22-91.878,91.88-91.878
	c50.663,0,91.881,41.215,91.881,91.878S166.662,207.883,115.999,207.883z M115.999,25.1c-50.122,0-90.898,40.776-90.898,90.899
	c0,50.124,40.776,90.903,90.898,90.903c50.122,0,90.901-40.779,90.901-90.903C206.9,65.876,166.121,25.1,115.999,25.1z"/>
<path fill="#FFD87F" d="M115.999,14.586C59.99,14.586,14.587,59.991,14.587,116c0,56.012,45.403,101.414,101.412,101.414
	c56.01,0,101.413-45.402,101.413-101.414C217.412,59.991,172.009,14.586,115.999,14.586z M115.999,214.457
	c-54.375,0-98.455-44.079-98.455-98.457c0-54.376,44.08-98.457,98.455-98.457c54.377,0,98.456,44.081,98.456,98.457
	C214.455,170.378,170.376,214.457,115.999,214.457z"/>
<path fill="#020202" d="M57.568,81.299l27.519,0.015l-0.004,7.929l-27.519-0.015L57.568,81.299z M57.576,66.574l27.519,0.015
	l-0.004,7.929l-27.519-0.015L57.576,66.574z M106.934,95.938L57.56,95.911l-0.004,7.93l47.523,0.024
	c5.204,0.002,17.343,0.121,21.851,7.26l0.002-4.416C124.738,99.685,118.265,95.943,106.934,95.938L106.934,95.938z M107.041,110.662
	l-49.488-0.026l-0.004,7.929l47.523,0.025c11.563,0.006,18.847,0.464,21.853,2.051l0.002-3.513
	C124.616,111.577,114.903,110.666,107.041,110.662L107.041,110.662z M106.906,148.04l-49.374-0.025l0.004-7.928l47.522,0.024
	c5.204,0.002,17.344-0.104,21.858-7.238l-0.003,4.417C124.714,144.312,118.237,148.047,106.906,148.04L106.906,148.04z
	 M107.028,133.315l-49.488-0.026l0.004-7.929l47.523,0.024c11.563,0.006,18.848-0.442,21.854-2.026l-0.002,3.512
	C124.605,132.418,114.891,133.319,107.028,133.315L107.028,133.315z M138.927,161.763l36.307,0.02l0.003-4.872l-35.267-0.018
	c-3.122-0.002-10.521-0.117-13.18-4.311l-0.001,2.719C128.06,159.493,131.989,161.76,138.927,161.763z M138.816,152.814l36.308,0.02
	l0.003-4.871l-35.151-0.019c-7.054-0.004-11.447-0.23-13.181-1.253l-0.002,2.151C128.178,152.243,134.074,152.812,138.816,152.814
	L138.816,152.814z"/>
</svg>
