<svg version="1.1" xmlns="http://www.w3.org/2000/svg" preserveAspectRatio="xMinYMin meet" viewBox="0 0 232 232" enable-background="new 0 0 232 232">
<path fill="#C44353" d="M232,116c0,3.7-6.7,7.1-7,10.7c-0.4,3.7,5.5,8.3,4.8,11.9c-0.7,3.6-7.9,5.7-9,9.2c-1.1,3.6,3.8,9.2,2.4,12.6
	c-1.4,3.4-8.9,4-10.6,7.2c-1.7,3.3,1.9,9.8-0.1,12.8c-2.1,3.1-9.5,2.2-11.8,5c-2.3,2.9,0,9.9-2.6,12.6c-2.6,2.6-9.7,0.3-12.6,2.6
	c-2.8,2.3-1.9,9.8-5,11.8c-3.1,2.1-9.6-1.6-12.8,0.1c-3.2,1.7-3.8,9.2-7.2,10.6c-3.4,1.4-9.1-3.5-12.6-2.4c-3.5,1.1-5.5,8.3-9.2,9
	c-3.6,0.7-8.2-5.2-11.9-4.8c-3.6,0.4-7,7-10.7,7c-3.7,0-7.1-6.7-10.7-7c-3.7-0.4-8.3,5.5-11.9,4.8c-3.6-0.7-5.7-7.9-9.2-9
	c-3.5-1.1-9.2,3.8-12.6,2.4c-3.4-1.4-4-8.9-7.2-10.6c-3.3-1.7-9.8,1.9-12.8-0.1c-3.1-2.1-2.2-9.5-5-11.8c-2.9-2.3-9.9,0-12.6-2.6
	c-2.6-2.6-0.3-9.7-2.6-12.6c-2.3-2.8-9.8-1.9-11.8-5c-2-3.1,1.6-9.6-0.1-12.8c-1.7-3.2-9.2-3.8-10.6-7.2c-1.4-3.4,3.5-9.1,2.4-12.6
	c-1.1-3.5-8.3-5.5-9-9.2c-0.7-3.6,5.2-8.2,4.8-11.9c-0.4-3.6-7-7-7-10.7c0-3.7,6.7-7.1,7-10.7c0.4-3.7-5.5-8.3-4.8-11.9
	c0.7-3.6,7.9-5.7,9-9.2c1.1-3.6-3.8-9.2-2.4-12.6c1.4-3.4,8.9-4,10.6-7.2c1.7-3.3-1.9-9.8,0.1-12.8c2.1-3.1,9.5-2.2,11.8-5
	c2.3-2.9,0-9.9,2.6-12.6c2.6-2.6,9.7-0.3,12.6-2.6c2.9-2.3,1.9-9.8,5-11.8c3.1-2,9.6,1.6,12.8-0.1c3.2-1.7,3.8-9.2,7.2-10.6
	c3.4-1.4,9.1,3.5,12.6,2.4c3.5-1.1,5.5-8.3,9.2-9c3.6-0.7,8.2,5.2,11.9,4.8c3.6-0.4,7-7,10.7-7c3.7,0,7.1,6.7,10.7,7
	c3.7,0.4,8.3-5.5,11.9-4.8c3.6,0.7,5.7,7.9,9.2,9c3.5,1.1,9.2-3.8,12.6-2.4c3.4,1.4,4,8.9,7.2,10.6c3.3,1.7,9.8-1.9,12.8,0.1
	c3.1,2.1,2.2,9.5,5,11.8c2.9,2.3,9.9,0,12.6,2.6c2.6,2.6,0.3,9.7,2.6,12.6c2.3,2.8,9.8,1.9,11.8,5c2,3.1-1.6,9.6,0.1,12.8
	c1.7,3.2,9.2,3.8,10.6,7.2c1.4,3.4-3.5,9.1-2.4,12.6c1.1,3.5,8.3,5.5,9,9.2c0.7,3.6-5.2,8.2-4.8,11.9C225.3,108.9,232,112.3,232,116
	z"/>
<path fill="#F27375" d="M116,207.9c-50.7,0-91.9-41.2-91.9-91.9S65.3,24.1,116,24.1c50.7,0,91.9,41.2,91.9,91.9
	S166.7,207.9,116,207.9z M116,25.1c-50.1,0-90.9,40.8-90.9,90.9c0,50.1,40.8,90.9,90.9,90.9c50.1,0,90.9-40.8,90.9-90.9
	C206.9,65.9,166.1,25.1,116,25.1z"/>
<path fill="#F17274" d="M116,14.6C60,14.6,14.6,60,14.6,116c0,56,45.4,101.4,101.4,101.4c56,0,101.4-45.4,101.4-101.4
	C217.4,60,172,14.6,116,14.6z M116,214.5c-54.4,0-98.5-44.1-98.5-98.5c0-54.4,44.1-98.5,98.5-98.5c54.4,0,98.5,44.1,98.5,98.5
	C214.5,170.4,170.4,214.5,116,214.5z"/>
<path fill-rule="evenodd" clip-rule="evenodd" fill="#4772B7" d="M157.4,73.8l-7.6,89.1l-34,9.7l-0.1-98.8H157.4z M166.8,65.5
	c0,0-6.2,70-9.6,103.9c-13.5,4-40.5,11.9-41.3,11.9c-0.6,0-27.6-7.9-41.3-11.9c-3.1-33.9-9.3-103.9-9.3-103.9H166.8z"/>
<polygon fill-rule="evenodd" clip-rule="evenodd" fill="#548FCC" points="157.5,73.7 150,163.3 115.6,172.9 115.6,73.7 "/>
<path id="Shape_9_" fill="#FFFFFF" d="M115.5,112.8h16.9l1.2-13.1h-18.1V87h0h32l-0.3,3.4l-3.1,35.2h-28.6V112.8z"/>
<path id="Shape_8_" fill="#EBEAEA" d="M115.6,146L115.6,146l-14.3-3.8l-0.9-10.2h-6.9h-5.9l1.8,20l26.1,7.3l0.1,0V146z"/>
<path id="Shape_6_" fill="#FFFFFF" d="M131.3,125.1l-1.5,17.1l-14.2,3.8v13.3l26.2-7.3l0.2-2.2l2.2-24.8H131.3z"/>
<path id="Shape_2_" fill="#EBEAEA" d="M115.6,87v7.9v4.8v0H84.8h0l-0.3-2.9l-0.6-6.5L83.6,87H115.6z"/>
<path id="Shape_1_" fill="#EBEAEA" d="M115.5,112.8v7.9v4.8v0h-14h0l-0.3-2.9l-0.6-6.5l-0.3-3.4H115.5z"/>
</svg>
