<svg version="1.1" id="Capa_1" xmlns="http://www.w3.org/2000/svg" xmlns:xlink="http://www.w3.org/1999/xlink" x="0px" y="0px" viewBox="0 123.626 595.447 594.799" enable-background="new 0 123.626 595.447 594.799" reserveAspectRatio="xMidYMid meet" xml:space="preserve">
<g id="Layer_2">
	<ellipse fill="#FFFFFF" cx="317.18" cy="421.009" rx="316.96" ry="297.383"/>
</g>
<g>
	<g>
		<path fill="#010002" d="M395.213,272.333h45.659l-31.305,176.74c-3.485,20.433-3.597,35.23-0.332,44.365
			c3.266,9.106,10.554,13.682,21.851,13.682c11.298,0,22.388-2.604,33.26-7.825c10.87-5.221,20.64-13.253,29.347-24.125
			c8.706-10.872,15.761-24.551,21.204-41.072c5.429-16.519,8.157-36.084,8.157-58.707c0-32.611-5.457-60.442-16.313-83.479
			c-10.87-23.036-25.765-42.078-44.666-57.068c-18.918-15.019-41.209-25.985-66.864-32.943
			c-25.655-6.958-53.251-10.457-82.833-10.457c-33.907,0-65.43,6.09-94.556,18.269c-29.125,12.194-54.448,28.933-75.982,50.219
			c-21.521,21.313-38.372,46.637-50.536,75.998c-12.179,29.333-18.256,61.172-18.256,95.534c0,33.921,5.097,64.341,15.308,91.306
			c10.224,26.978,25.116,49.89,44.682,68.819c19.563,18.902,43.8,33.468,72.705,43.676s62.068,15.32,99.476,15.32
			c12.592,0,26.934-1.515,43.026-4.547c16.093-3.058,30.656-7.62,43.704-13.709l20.212,62.621
			c-17.828,8.693-35.973,14.771-54.449,18.24c-18.489,3.486-39.682,5.236-63.583,5.236c-42.174,0-81.207-6.104-117.07-18.256
			c-35.877-12.194-66.945-30.228-93.249-54.133c-26.316-23.918-46.857-53.596-61.655-89.031C7.384,521.585,0,480.598,0,434.082
			c0-47.395,8.473-90.229,25.447-128.492c16.946-38.232,39.777-70.858,68.475-97.836c28.7-26.95,61.958-47.699,99.779-62.29
			c37.819-14.55,77.817-21.838,119.991-21.838c39.997,0,77.184,5.773,111.529,17.278c34.334,11.533,64.121,28.037,89.336,49.573
			c25.214,21.521,45.011,47.835,59.368,78.932c14.343,31.068,21.521,66.408,21.521,105.965c0,27.832-4.877,53.899-14.675,78.27
			c-9.782,24.358-23.256,45.439-40.423,63.268c-17.195,17.815-37.187,31.938-60.002,42.381
			c-22.815,10.429-47.285,15.652-73.366,15.652c-10.885,0-20.97-1.186-30.339-3.582c-9.343-2.396-17.167-6.421-23.465-12.07
			c-6.31-5.661-10.98-13.048-14.025-22.182c-3.045-9.122-3.927-20.42-2.604-33.908h-2.604c-6.53,9.134-13.585,18.048-21.189,26.729
			c-7.619,8.709-15.981,16.423-25.115,23.16c-9.122,6.751-19.138,12.07-29.995,15.981c-10.885,3.898-22.831,5.869-35.876,5.869
			c-10.429,0-20.433-2.287-29.995-6.834c-9.575-4.574-17.843-10.993-24.786-19.246c-6.971-8.253-12.511-18.257-16.63-30.008
			c-4.146-11.738-6.201-24.786-6.201-39.129c0-26.949,4.339-53.154,13.033-78.587c8.693-25.448,20.556-47.934,35.547-67.497
			c14.991-19.563,32.391-35.312,52.177-47.286c19.786-11.946,40.768-17.924,62.922-17.924c15.212,0,28.052,2.272,38.48,6.834
			c10.444,4.575,19.991,10.553,28.7,17.952L395.213,272.333z M354.115,351.264c-5.648-4.795-11.518-8.486-17.595-11.09
			c-6.09-2.617-13.694-3.914-22.831-3.914c-13.032,0-25.103,3.693-36.181,11.09c-11.09,7.384-20.667,16.934-28.699,28.685
			c-8.061,11.738-14.247,24.911-18.601,39.446c-4.34,14.591-6.531,28.824-6.531,42.726c0,14.355,2.937,26.108,8.818,35.243
			c5.869,9.106,15.969,13.682,30.311,13.682c6.09,0,12.62-1.847,19.563-5.525c6.972-3.706,13.694-8.597,20.239-14.687
			c6.518-6.077,12.812-13.048,18.902-20.86c6.09-7.84,11.518-16.093,16.313-24.786L354.115,351.264z"/>
	</g>
</g>
</svg>
