<svg version="1.1" id="Layer_1" xmlns="http://www.w3.org/2000/svg" xmlns:xlink="http://www.w3.org/1999/xlink" x="0px" y="0px" viewBox="-100.845 22.458 512 512" reserveAspectRatio="xMidYMid meet" enable-background="new -100.845 22.458 512 512" xml:space="preserve">
<path id="Blue_1_" fill="#3C5A99" d="M382.895,534.459c15.604,0,28.258-12.654,28.258-28.261V50.717
	c0-15.609-12.652-28.258-28.258-28.258H-72.588c-15.611,0-28.259,12.649-28.259,28.258v455.481
	c0,15.605,12.647,28.261,28.259,28.261H382.895z"/>
<path id="f" fill="#FFFFFF" d="M252.425,534.459V336.184h66.551l9.965-77.271h-76.516V209.58c0-22.371,6.213-37.617,38.293-37.617
	l40.917-0.019v-69.111c-7.076-0.941-31.365-3.045-59.624-3.045c-58.993,0-99.382,36.01-99.382,102.139v56.985h-66.722v77.271h66.722
	v198.275H252.425z"/>
</svg>
