<svg version="1.1" id="Layer_1" xmlns="http://www.w3.org/2000/svg" xmlns:xlink="http://www.w3.org/1999/xlink" x="0px" y="0px"
	  viewBox="0 0 232 232" enable-background="new 0 0 232 232" reserveAspectRatio="xMidYMid meet" xml:space="preserve">
<path fill="#282D33" d="M232,116c0-3.7-6.7-7.1-7-10.7c-0.4-3.7,5.5-8.3,4.8-11.9c-0.7-3.6-7.9-5.7-9-9.2c-1.1-3.5,3.8-9.2,2.4-12.6
	c-1.4-3.4-8.9-4-10.6-7.2c-1.7-3.3,1.9-9.8-0.1-12.8c-2.1-3.1-9.5-2.2-11.8-5c-2.3-2.9,0-9.9-2.6-12.6c-2.6-2.6-9.7-0.3-12.6-2.6
	c-2.8-2.3-1.9-9.8-5-11.8c-3.1-2-9.6,1.6-12.8-0.1c-3.2-1.7-3.8-9.2-7.2-10.6c-3.4-1.4-9.1,3.5-12.6,2.4c-3.5-1.1-5.5-8.3-9.2-9
	c-3.6-0.7-8.2,5.2-11.9,4.8c-3.6-0.4-7-7-10.7-7s-7.1,6.7-10.7,7c-3.7,0.4-8.3-5.5-11.9-4.8c-3.6,0.7-5.7,7.9-9.2,9
	c-3.5,1.1-9.2-3.8-12.6-2.4c-3.4,1.4-4,8.9-7.2,10.6c-3.3,1.7-9.8-1.9-12.8,0.1c-3.1,2.1-2.2,9.5-5,11.8c-2.9,2.3-9.9,0-12.6,2.6
	c-2.6,2.6-0.3,9.7-2.6,12.6c-2.3,2.8-9.8,1.9-11.8,5c-2,3.1,1.6,9.6-0.1,12.8c-1.7,3.2-9.2,3.8-10.6,7.2c-1.4,3.4,3.5,9.1,2.4,12.6
	c-1.1,3.5-8.3,5.5-9,9.2C1.5,97,7.4,101.6,7,105.3c-0.4,3.6-7,7-7,10.7c0,3.7,6.7,7.1,7,10.7c0.4,3.7-5.5,8.3-4.8,11.9
	c0.7,3.6,7.9,5.7,9,9.2c1.1,3.5-3.8,9.2-2.4,12.6c1.4,3.4,8.9,4,10.6,7.2c1.7,3.3-1.9,9.8,0.1,12.8c2.1,3.1,9.5,2.2,11.8,5
	c2.3,2.9,0,9.9,2.6,12.6c2.6,2.6,9.7,0.3,12.6,2.6c2.8,2.3,1.9,9.8,5,11.8c3.1,2,9.6-1.6,12.8,0.1c3.2,1.7,3.8,9.2,7.2,10.6
	c3.4,1.4,9.1-3.5,12.6-2.4c3.5,1.1,5.5,8.3,9.2,9c3.6,0.7,8.2-5.2,11.9-4.8c3.6,0.4,7,7,10.7,7s7.1-6.7,10.7-7
	c3.7-0.4,8.3,5.5,11.9,4.8c3.6-0.7,5.7-7.9,9.2-9c3.6-1.1,9.2,3.8,12.6,2.4c3.4-1.4,4-8.9,7.2-10.6c3.3-1.7,9.8,1.9,12.8-0.1
	c3.1-2.1,2.2-9.5,5-11.8c2.9-2.3,9.9,0,12.6-2.6c2.6-2.6,0.3-9.7,2.6-12.6c2.3-2.8,9.8-1.9,11.8-5c2-3.1-1.6-9.6,0.1-12.8
	c1.7-3.2,9.2-3.8,10.6-7.2c1.4-3.4-3.5-9.1-2.4-12.6c1.1-3.5,8.3-5.5,9-9.2c0.7-3.6-5.2-8.2-4.8-11.9C225.3,123.1,232,119.7,232,116
	z"/>
<ellipse cx="115.1" cy="108.3" rx="78.3" ry="78.2"/>
<path fill="#36454B" d="M115.6,207.9c-50.7,0-91.9-41.2-91.9-91.9s41.2-91.9,91.9-91.9c50.7,0,91.9,41.2,91.9,91.9
	S166.3,207.9,115.6,207.9z M115.6,25.1c-50.1,0-90.9,40.8-90.9,90.9s40.8,90.9,90.9,90.9c50.1,0,90.9-40.8,90.9-90.9
	S165.7,25.1,115.6,25.1z"/>
<path fill="#36454B" d="M115.6,14.6C59.6,14.6,14.2,60,14.2,116c0,56,45.4,101.4,101.4,101.4c56,0,101.4-45.4,101.4-101.4
	C217,60,171.6,14.6,115.6,14.6z M115.6,214.5c-54.4,0-98.5-44.1-98.5-98.5c0-54.4,44.1-98.5,98.5-98.5c54.4,0,98.5,44.1,98.5,98.5
	C214.1,170.4,170,214.5,115.6,214.5z"/>
<path fill-rule="evenodd" clip-rule="evenodd" fill="#282D33" d="M115.6,27.4c-44.3,0-80.2,35.9-80.2,80.2c0,35.4,23,65.5,54.8,76.1
	c4,0.7,5.5-1.7,5.5-3.9c0-1.9-0.1-8.2-0.1-14.9c-22.3,4.9-27-9.5-27-9.5c-3.6-9.3-8.9-11.7-8.9-11.7c-7.3-5,0.5-4.9,0.5-4.9
	c8,0.6,12.3,8.3,12.3,8.3c7.1,12.3,18.8,8.7,23.3,6.7c0.7-5.2,2.8-8.7,5.1-10.7c-17.8-2-36.5-8.9-36.5-39.6c0-8.8,3.1-15.9,8.3-21.5
	c-0.8-2-3.6-10.2,0.8-21.2c0,0,6.7-2.2,22.1,8.2c6.4-1.8,13.3-2.7,20.1-2.7c6.8,0,13.7,0.9,20.1,2.7c15.3-10.4,22-8.2,22-8.2
	c4.4,11,1.6,19.2,0.8,21.2c5.1,5.6,8.3,12.8,8.3,21.5c0,30.8-18.8,37.6-36.6,39.6c2.9,2.5,5.4,7.4,5.4,14.8c0,10.7-0.1,19.4-0.1,22
	c0,2.1,1.4,4.6,5.5,3.8c31.8-10.6,54.8-40.7,54.8-76.1C195.8,63.3,159.9,27.4,115.6,27.4z"/>
<path fill="#282D33" d="M65.8,142.5c-0.2,0.4-0.8,0.5-1.4,0.2c-0.6-0.3-0.9-0.8-0.7-1.2c0.2-0.4,0.8-0.5,1.4-0.2
	C65.7,141.6,66,142.1,65.8,142.5L65.8,142.5z M64.8,141.8"/>
<path fill="#282D33" d="M69,146.2c-0.4,0.4-1.1,0.2-1.6-0.4c-0.5-0.6-0.6-1.3-0.2-1.7c0.4-0.4,1.1-0.2,1.6,0.4
	C69.3,145.1,69.4,145.8,69,146.2L69,146.2z M68.3,145.3"/>
<path fill="#282D33" d="M72.2,150.8c-0.5,0.3-1.3,0-1.8-0.7c-0.5-0.7-0.5-1.6,0-1.9c0.5-0.3,1.3,0,1.8,0.7
	C72.7,149.6,72.7,150.4,72.2,150.8L72.2,150.8z M72.2,150.8"/>
<path fill="#282D33" d="M76.5,155.2c-0.4,0.5-1.4,0.4-2.1-0.3c-0.7-0.6-0.9-1.6-0.5-2c0.4-0.5,1.4-0.3,2.1,0.3
	C76.8,153.8,77,154.8,76.5,155.2L76.5,155.2z M76.5,155.2"/>
<path fill="#282D33" d="M82.5,157.8c-0.2,0.6-1.1,0.9-2,0.6c-0.9-0.3-1.5-1-1.3-1.6c0.2-0.6,1.1-0.9,2-0.6
	C82.1,156.5,82.7,157.2,82.5,157.8L82.5,157.8z M82.5,157.8"/>
<path fill="#282D33" d="M89.1,158.3c0,0.7-0.7,1.2-1.7,1.2c-1,0-1.7-0.5-1.7-1.2c0-0.7,0.8-1.2,1.7-1.2
	C88.3,157.1,89.1,157.7,89.1,158.3L89.1,158.3z M89.1,158.3"/>
<path fill="#282D33" d="M95.2,157.3c0.1,0.6-0.5,1.3-1.5,1.5c-0.9,0.2-1.8-0.2-1.9-0.9c-0.1-0.7,0.6-1.3,1.5-1.5
	C94.2,156.2,95.1,156.6,95.2,157.3L95.2,157.3z M95.2,157.3"/>
</svg>
