<svg version="1.1" id="Layer_1" xmlns="http://www.w3.org/2000/svg" xmlns:xlink="http://www.w3.org/1999/xlink" x="0px" y="0px"
	  viewBox="0 0 232 232" enable-background="new 0 0 232 232" reserveAspectRatio="xMidYMid meet" xml:space="preserve">
<path fill="#D1AE99" d="M232,116c0,3.7-6.7,7.1-7,10.7c-0.4,3.7,5.5,8.3,4.8,11.9c-0.7,3.6-7.9,5.7-9,9.2c-1.1,3.5,3.8,9.2,2.4,12.6
	c-1.4,3.4-8.9,4-10.6,7.2c-1.7,3.3,1.9,9.8-0.1,12.8c-2.1,3.1-9.5,2.2-11.8,5c-2.3,2.9,0,9.9-2.6,12.6c-2.6,2.6-9.7,0.3-12.6,2.6
	c-2.8,2.3-1.9,9.8-5,11.8c-3.1,2.1-9.6-1.6-12.8,0.1c-3.2,1.7-3.8,9.2-7.2,10.6c-3.4,1.4-9.1-3.5-12.6-2.4c-3.5,1.1-5.5,8.3-9.2,9
	c-3.6,0.7-8.2-5.2-11.9-4.8c-3.6,0.4-7,7-10.7,7c-3.7,0-7.1-6.7-10.7-7c-3.7-0.4-8.3,5.5-11.9,4.8c-3.6-0.7-5.7-7.9-9.2-9
	c-3.5-1.1-9.2,3.8-12.6,2.4c-3.4-1.4-4-8.9-7.2-10.6c-3.3-1.7-9.8,1.9-12.8-0.1c-3.1-2.1-2.2-9.5-5-11.8c-2.9-2.3-9.9,0-12.6-2.6
	c-2.6-2.6-0.3-9.7-2.6-12.6c-2.3-2.8-9.8-1.9-11.8-5c-2-3.1,1.6-9.6-0.1-12.8c-1.7-3.2-9.2-3.8-10.6-7.2c-1.4-3.4,3.5-9.1,2.4-12.6
	c-1.1-3.5-8.3-5.5-9-9.2c-0.7-3.6,5.2-8.2,4.8-11.9c-0.4-3.6-7-7-7-10.7c0-3.7,6.7-7.1,7-10.7c0.4-3.7-5.5-8.3-4.8-11.9
	c0.7-3.6,7.9-5.7,9-9.2c1.1-3.6-3.8-9.2-2.4-12.6c1.4-3.4,8.9-4,10.6-7.2c1.7-3.3-1.9-9.8,0.1-12.8c2.1-3.1,9.5-2.2,11.8-5
	c2.3-2.9,0-9.9,2.6-12.6c2.6-2.6,9.7-0.3,12.6-2.6c2.9-2.3,1.9-9.8,5-11.8c3.1-2,9.6,1.6,12.8-0.1c3.2-1.7,3.8-9.2,7.2-10.6
	c3.4-1.4,9.1,3.5,12.6,2.4c3.5-1.1,5.5-8.3,9.2-9c3.6-0.7,8.2,5.2,11.9,4.8c3.6-0.4,7-7,10.7-7c3.7,0,7.1,6.7,10.7,7
	c3.7,0.4,8.3-5.5,11.9-4.8c3.6,0.7,5.7,7.9,9.2,9c3.5,1.1,9.2-3.8,12.6-2.4c3.4,1.4,4,8.9,7.2,10.6c3.3,1.7,9.8-1.9,12.8,0.1
	c3.1,2.1,2.2,9.5,5,11.8c2.9,2.3,10,0,12.6,2.6c2.6,2.6,0.3,9.7,2.6,12.6c2.3,2.8,9.8,1.9,11.8,5c2.1,3.1-1.6,9.6,0.1,12.8
	c1.7,3.2,9.2,3.8,10.6,7.2c1.4,3.4-3.5,9.1-2.4,12.6c1.1,3.5,8.3,5.5,9,9.2c0.7,3.6-5.2,8.2-4.8,11.9C225.3,108.9,232,112.3,232,116
	z"/>
<path fill="#E9CBBA" d="M115.6,207.9c-50.7,0-91.9-41.2-91.9-91.9s41.2-91.9,91.9-91.9c50.7,0,91.9,41.2,91.9,91.9
	S166.3,207.9,115.6,207.9z M115.6,25.1c-50.1,0-90.9,40.8-90.9,90.9s40.8,90.9,90.9,90.9c50.1,0,90.9-40.8,90.9-90.9
	S165.7,25.1,115.6,25.1z"/>
<path fill="#E9CBBA" d="M115.6,14.6C59.6,14.6,14.2,60,14.2,116c0,56,45.4,101.4,101.4,101.4c56,0,101.4-45.4,101.4-101.4
	C217,60,171.6,14.6,115.6,14.6z M115.6,214.5c-54.4,0-98.5-44.1-98.5-98.5c0-54.4,44.1-98.5,98.5-98.5c54.4,0,98.5,44.1,98.5,98.5
	C214.1,170.4,170,214.5,115.6,214.5z"/>
<path fill="#D24A48" d="M133.6,180.6l1.4-22l3.8-6.2c0,0-8.7,3.4-23.2,3.4c-14.5,0-23.1-3.3-23.1-3.3l4.3,6.8l1.5,21.4
	c0,2.3,7.9,4.1,17.7,4.1C125.7,184.8,133.6,182.9,133.6,180.6"/>
<path fill="#D24A48" d="M129.3,77.9l2.9-10.9l16.1-16.1l-4.2-3.4l-17,17.2l-3.4,13.1c-2.4-0.1-5-0.1-7.6-0.1
	c-17.9,0-32.4,1.9-32.4,4.4c0,2.4,14.5,4.4,32.4,4.4c17.9,0,32.4-1.9,32.4-4.4C148.4,80.1,140.6,78.6,129.3,77.9z M127.6,84.1
	c0,0-0.6,0.1-2.5,0.1c-1.8,0-3.2,0-3.7-0.5c-0.1-0.1-0.2-0.4-0.2-0.5c0-0.3,0.2-0.5,0.5-0.6L122,83c-0.1,0-0.2,0.1-0.2,0.1
	c0,0.2,1.9,0.4,3.3,0.4c1.4,0,3.2-0.1,3.2-0.4c0-0.1-0.1-0.1-0.4-0.2l0.3-0.4c0.4,0.1,0.7,0.3,0.7,0.7C129,83.9,128.1,84,127.6,84.1
	z"/>
<path fill="#D24A48" d="M148.2,50.9c0.4-0.4-0.2-1.6-1.4-2.5c-1.2-1-2.4-1.4-2.8-0.9c-0.4,0.4,0.2,1.6,1.4,2.5
	C146.5,50.9,147.8,51.3,148.2,50.9"/>
<path fill="#D24A48" d="M132.8,126.9c-0.4-3.5,8-8.6,5.9-8.7c-4.6,0.3-6.9,5.2-9.3,10.4c-0.9,1.9-3.8,10-5.7,9s2.5-7.6,3.7-11.6
	c-1.4,1-6.6,4.9-8,1.2c-2.2,1.8-6.8,2.7-6.3-1.9c-1.2,1.9-3.7,4.7-6.8,3.5c-4.1-1.5,2.4-13.9,4-13.2c1.6,0.6-0.3,3.4-0.8,4.5
	c-1.1,2.4-2.4,5.4-1.5,6.1c1.5,1.1,5.4-4,5.5-4.1c0.7-0.9,2.9-7.1,4.6-6.4c1.7,0.7-4.3,8.8-2,10.4c0.5,0.3,2.3-0.2,3.4-1.4
	c0.7-0.7,0.5-2.4,2.9-7.9c2.4-5.5,4.6-12.4,6.2-11.9c1.7,0.5,0.3,4-0.3,5.4c-2.8,6.2-7.6,16.3-5.3,15.6c2.3-0.8,3.5-0.8,5.7-3.3
	c2.2-2.5,2.1-6.6,3.6-6.5c1.5,0.1,1.2,1.4,0.9,2.4c1.5-1.6,6.9-5,8.3-1.6c1.6,4-7.8,9.7-5.5,9.4c2.3-0.3,6-2.5,7.6-4.6l4.4-37.4
	c0,0-4.4,3.5-32.2,3.5c-27.9,0-31.8-3.4-31.8-3.4l3.7,34.1c2-5.3,6.6-16.1,14-15.8c3.3,0.2,7.8,6.3,4,6.5c-1.6,0.1-1.8-3.1-3.7-3.5
	c-1.4-0.3-3.3,0.7-4.6,1.9c-2.5,2.3-7.8,11.5-7.1,16.1c0.9,5.8,8.4-2,9.7-4.4c0.9-1.6,1.5-6.5,3.5-6c2,0.5-0.2,5.5-1.6,10
	c-1.6,5-2.4,10.2-4.4,9.6c-2-0.6,1.3-7,1.1-8.2c-1.9,1.7-5.3,5.8-9.8,3.8l2.3,21.2c0,0,6.1,4.6,24.5,4.6c18.4,0,24.8-4.5,24.8-4.5
	l2.9-24.5C140.7,127.4,133.3,131.3,132.8,126.9"/>
</svg>
