<svg version="1.1" id="Layer_1" xmlns="http://www.w3.org/2000/svg" xmlns:xlink="http://www.w3.org/1999/xlink" x="0px" y="0px" viewBox="0 0 232 232" enable-background="new 0 0 232 232" reserveAspectRatio="xMidYMid meet" xml:space="preserve">
<path fill="#864C9D" d="M232,116c0,3.7-6.7,7.1-7,10.7c-0.4,3.7,5.5,8.3,4.8,11.9c-0.7,3.6-7.9,5.7-9,9.2c-1.1,3.5,3.8,9.2,2.4,12.6
	c-1.4,3.4-8.9,4-10.6,7.2c-1.7,3.3,1.9,9.8-0.1,12.8c-2.1,3.1-9.5,2.2-11.8,5c-2.3,2.9,0,9.9-2.6,12.6c-2.6,2.6-9.7,0.3-12.6,2.6
	c-2.8,2.3-1.9,9.8-5,11.8c-3.1,2.1-9.6-1.6-12.8,0.1c-3.2,1.7-3.8,9.2-7.2,10.6c-3.4,1.4-9.1-3.5-12.6-2.4c-3.5,1.1-5.5,8.3-9.2,9
	c-3.6,0.7-8.2-5.2-11.9-4.8c-3.6,0.4-7,7-10.7,7s-7.1-6.7-10.7-7c-3.7-0.4-8.3,5.5-11.9,4.8c-3.6-0.7-5.7-7.9-9.2-9
	c-3.5-1.1-9.2,3.8-12.6,2.4c-3.4-1.4-4-8.9-7.2-10.6c-3.3-1.7-9.8,1.9-12.8-0.1c-3.1-2.1-2.2-9.5-5-11.8c-2.9-2.3-9.9,0-12.6-2.6
	c-2.6-2.6-0.3-9.7-2.6-12.6c-2.3-2.8-9.8-1.9-11.8-5c-2-3.1,1.6-9.6-0.1-12.8c-1.7-3.2-9.2-3.8-10.6-7.2c-1.4-3.4,3.5-9.1,2.4-12.6
	c-1.1-3.5-8.3-5.5-9-9.2c-0.7-3.6,5.2-8.2,4.8-11.9c-0.4-3.6-7-7-7-10.7c0-3.7,6.7-7.1,7-10.7c0.4-3.7-5.5-8.3-4.8-11.9
	c0.7-3.6,7.9-5.7,9-9.2c1.1-3.6-3.8-9.2-2.4-12.6c1.4-3.4,8.9-4,10.6-7.2c1.7-3.3-1.9-9.8,0.1-12.8c2.1-3.1,9.5-2.2,11.8-5
	c2.3-2.9,0-9.9,2.6-12.6c2.6-2.6,9.7-0.3,12.6-2.6c2.9-2.3,1.9-9.8,5-11.8c3.1-2,9.6,1.6,12.8-0.1c3.2-1.7,3.8-9.2,7.2-10.6
	c3.4-1.4,9.1,3.5,12.6,2.4c3.5-1.1,5.5-8.3,9.2-9c3.6-0.7,8.2,5.2,11.9,4.8c3.6-0.4,7-7,10.7-7s7.1,6.7,10.7,7
	c3.7,0.4,8.3-5.5,11.9-4.8c3.6,0.7,5.7,7.9,9.2,9c3.5,1.1,9.2-3.8,12.6-2.4c3.4,1.4,4,8.9,7.2,10.6c3.3,1.7,9.8-1.9,12.8,0.1
	c3.1,2.1,2.2,9.5,5,11.8c2.9,2.3,9.9,0,12.6,2.6c2.6,2.6,0.3,9.7,2.6,12.6c2.3,2.8,9.8,1.9,11.8,5c2.1,3.1-1.6,9.6,0.1,12.8
	c1.7,3.2,9.2,3.8,10.6,7.2c1.4,3.4-3.5,9.1-2.4,12.6c1.1,3.5,8.3,5.5,9,9.2c0.7,3.6-5.2,8.2-4.8,11.9C225.3,108.9,232,112.3,232,116
	z"/>
<path fill="#A66FAE" d="M115.6,207.9c-50.7,0-91.9-41.2-91.9-91.9c0-50.7,41.2-91.9,91.9-91.9c50.7,0,91.9,41.2,91.9,91.9
	C207.5,166.7,166.3,207.9,115.6,207.9z M115.6,25.1c-50.1,0-90.9,40.8-90.9,90.9c0,50.1,40.8,90.9,90.9,90.9
	c50.1,0,90.9-40.8,90.9-90.9C206.5,65.9,165.7,25.1,115.6,25.1z"/>
<path fill="#A66FAE" d="M115.6,14.6C59.6,14.6,14.2,60,14.2,116c0,56,45.4,101.4,101.4,101.4c56,0,101.4-45.4,101.4-101.4
	C217,60,171.6,14.6,115.6,14.6z M115.6,214.5c-54.4,0-98.5-44.1-98.5-98.5c0-54.4,44.1-98.5,98.5-98.5c54.4,0,98.5,44.1,98.5,98.5
	C214.1,170.4,170,214.5,115.6,214.5z"/>
<path fill-rule="evenodd" clip-rule="evenodd" fill="#E55126" d="M157.4,73.6l-7.6,89.1l-34,9.7l-0.1-98.8H157.4z M166.8,65.3
	c0,0-6.2,70-9.6,103.9c-13.5,4-40.5,11.9-41.3,11.9c-0.6,0-27.6-7.9-41.3-11.9c-3.1-33.9-9.3-103.9-9.3-103.9H166.8z"/>
<polygon fill-rule="evenodd" clip-rule="evenodd" fill="#F16529" points="157.5,73.6 150,163.1 115.5,172.7 115.5,73.6 "/>
<polygon fill="#EBEAEA" points="115.6,113.2 98.6,113.2 97.5,100.1 115.6,100.1 115.6,87.3 115.5,87.3 83.5,87.3 83.8,90.7 
	86.9,126 115.6,126 "/>
<polygon fill="#EBEAEA" points="115.6,146.4 115.5,146.4 101.3,142.6 100.4,132.4 93.4,132.4 87.5,132.4 89.3,152.5 115.5,159.7 
	115.6,159.7 "/>
<polygon fill="#FFFFFF" points="115.5,113.2 115.5,126 131.3,126 129.8,142.6 115.5,146.4 115.5,159.7 141.8,152.5 142,150.3 
	145,116.6 145.3,113.2 141.8,113.2 "/>
<polygon fill="#FFFFFF" points="115.5,87.3 115.5,95.2 115.5,100 115.5,100.1 146.4,100.1 146.4,100.1 146.4,100.1 146.7,97.2 
	147.3,90.7 147.6,87.3 "/>
</svg>
