<svg version="1.1" id="Layer_1" xmlns="http://www.w3.org/2000/svg" xmlns:xlink="http://www.w3.org/1999/xlink" x="0px" y="0px" viewBox="0 0 232 232" enable-background="new 0 0 232 232" reserveAspectRatio="xMidYMid meet" xml:space="preserve">
<path fill="#00AABF" d="M232,116c0,3.7-6.7,7.1-7,10.7c-0.4,3.7,5.5,8.3,4.8,11.9c-0.7,3.6-7.9,5.7-9,9.2c-1.1,3.5,3.8,9.2,2.4,12.6
	c-1.4,3.4-8.9,4-10.6,7.2c-1.7,3.3,1.9,9.8-0.1,12.8c-2.1,3.1-9.5,2.2-11.8,5c-2.3,2.9,0,9.9-2.6,12.6c-2.6,2.6-9.7,0.3-12.6,2.6
	c-2.8,2.3-1.9,9.8-5,11.8c-3.1,2-9.6-1.6-12.8,0.1c-3.2,1.7-3.8,9.2-7.2,10.6c-3.4,1.4-9.1-3.5-12.6-2.4c-3.5,1.1-5.5,8.3-9.2,9
	c-3.6,0.7-8.2-5.2-11.9-4.8c-3.6,0.4-7,7-10.7,7c-3.7,0-7.1-6.7-10.7-7c-3.7-0.4-8.3,5.5-11.9,4.8c-3.6-0.7-5.7-7.9-9.2-9
	c-3.5-1.1-9.2,3.8-12.6,2.4c-3.4-1.4-4-8.9-7.2-10.6c-3.3-1.7-9.8,1.9-12.8-0.1c-3.1-2.1-2.2-9.5-5-11.8c-2.9-2.3-9.9,0-12.6-2.6
	c-2.6-2.6-0.3-9.7-2.6-12.6c-2.3-2.8-9.8-1.9-11.8-5c-2-3.1,1.6-9.6-0.1-12.8c-1.7-3.2-9.2-3.8-10.6-7.2c-1.4-3.4,3.5-9.1,2.4-12.6
	c-1.1-3.5-8.3-5.5-9-9.2c-0.7-3.6,5.2-8.2,4.8-11.9c-0.4-3.6-7-7-7-10.7c0-3.7,6.7-7.1,7-10.7c0.4-3.7-5.5-8.3-4.8-11.9
	c0.7-3.6,7.9-5.7,9-9.2c1.1-3.6-3.8-9.2-2.4-12.6c1.4-3.4,8.9-4,10.6-7.2c1.7-3.3-1.9-9.8,0.1-12.8c2.1-3.1,9.5-2.2,11.8-5
	c2.3-2.9,0-9.9,2.6-12.6c2.6-2.6,9.7-0.3,12.6-2.6c2.9-2.3,1.9-9.8,5-11.8c3.1-2,9.6,1.6,12.8-0.1c3.2-1.7,3.8-9.2,7.2-10.6
	c3.4-1.4,9.1,3.5,12.6,2.4c3.5-1.1,5.5-8.3,9.2-9c3.6-0.7,8.2,5.2,11.9,4.8c3.6-0.4,7-7,10.7-7c3.7,0,7.1,6.7,10.7,7
	c3.7,0.4,8.3-5.5,11.9-4.8c3.6,0.7,5.7,7.9,9.2,9c3.5,1.1,9.2-3.8,12.6-2.4c3.4,1.4,4,8.9,7.2,10.6c3.3,1.7,9.8-1.9,12.8,0.1
	c3.1,2.1,2.2,9.5,5,11.8c2.9,2.3,10,0,12.6,2.6c2.6,2.6,0.3,9.7,2.6,12.6c2.3,2.8,9.8,1.9,11.8,5c2,3.1-1.6,9.6,0.1,12.8
	c1.7,3.2,9.2,3.8,10.6,7.2c1.4,3.4-3.5,9.1-2.4,12.6c1.1,3.5,8.3,5.5,9,9.2c0.7,3.6-5.2,8.2-4.8,11.9C225.3,108.9,232,112.3,232,116
	z"/>
<path fill="#57C8EB" d="M116,207.9c-50.7,0-91.9-41.2-91.9-91.9c0-50.7,41.2-91.9,91.9-91.9c50.7,0,91.9,41.2,91.9,91.9
	C207.9,166.7,166.7,207.9,116,207.9z M116,25.1c-50.1,0-90.9,40.8-90.9,90.9c0,50.1,40.8,90.9,90.9,90.9c50.1,0,90.9-40.8,90.9-90.9
	C206.9,65.9,166.1,25.1,116,25.1z"/>
<path fill="#57C8EB" d="M116.1,14.6C60.1,14.6,14.7,60,14.7,116c0,56,45.4,101.4,101.4,101.4c56,0,101.4-45.4,101.4-101.4
	C217.5,60,172.1,14.6,116.1,14.6z M116.1,214.5c-54.4,0-98.5-44.1-98.5-98.5c0-54.4,44.1-98.5,98.5-98.5c54.4,0,98.5,44.1,98.5,98.5
	C214.5,170.4,170.4,214.5,116.1,214.5z"/>
<path fill="#323331" d="M178.2,130.2c-1.5-9.1-7.4-16.7-25-23.9c-6.1-2.8-12.9-4.8-14.9-9.4c-0.7-2.7-0.8-4.2-0.4-5.8
	c1.3-5.3,7.6-6.9,12.6-5.4c3.2,1.1,6.3,3.6,8.1,7.5c8.6-5.6,8.6-5.5,14.6-9.4c-2.2-3.4-3.4-5-4.8-6.4c-5.2-5.8-12.2-8.8-23.5-8.5
	c-2,0.2-3.9,0.5-5.9,0.8c-5.6,1.4-11,4.4-14.1,8.3c-9.4,10.7-6.7,29.5,4.7,37.2c11.3,8.5,27.9,10.4,30.1,18.4
	c2.1,9.7-7.1,12.9-16.3,11.8c-6.7-1.4-10.5-4.8-14.6-11.1c-7.5,4.3-7.5,4.3-15.1,8.7c1.8,4,3.7,5.8,6.8,9.2
	c14.4,14.7,50.6,13.9,57.1-8.2C177.8,143.1,179.6,138,178.2,130.2z M103.5,70H84.8c0,16.1-0.1,32.1-0.1,48.2
	c0,10.3,0.5,19.7-1.1,22.5c-2.7,5.7-9.8,5-13,3.9c-3.3-1.6-4.9-3.9-6.9-7.1c-0.5-0.9-0.9-1.6-1.1-1.7c-5.1,3.1-10.1,6.2-15.2,9.3
	c2.5,5.2,6.2,9.7,11,12.6c7.1,4.3,16.7,5.6,26.7,3.3c6.5-1.9,12.1-5.8,15.1-11.8c4.2-7.8,3.3-17.3,3.3-27.8
	C103.6,104.2,103.5,87.1,103.5,70z"/>
</svg>
