<svg version="1.1" xmlns="http://www.w3.org/2000/svg" xmlns:xlink="http://www.w3.org/1999/xlink" x="0px" y="0px" width="700px"
	 height="700px" viewBox="0 0 700 700" style="enable-background:new 0 0 700 700;" reserveAspectRatio="xMidYMid meet" xml:space="preserve">
<style type="text/css">
<![CDATA[
	.st0{display:inline;fill:#FFFFFF;stroke:#000000;stroke-miterlimit:10;}
	.st1{fill:#169FD2;}
	.st2{fill:#2AA6D8;}
	.st3{fill:#31A9DA;}
	.st4{fill:#38ADDD;}
	.st5{display:inline;fill-rule:evenodd;clip-rule:evenodd;fill:#FFFFFF;}
	.st6{fill:#0081AA;}
	.st7{fill:#0086B1;}
	.st8{fill:#008AB6;}
	.st9{fill:#008CB9;}
	.st10{fill:#0093C2;}
	.st11{display:none;}
	.st12{fill:#0C9ED1;}
	.st13{display:inline;fill-rule:evenodd;clip-rule:evenodd;}
]]>
</style>
<g id="Layer_3" class="st11">
	<rect class="st0" width="700" height="700"/>
</g>
<g id="Warstwa_34">
	<g class="st11">
		<path class="st13" d="M229.5,159.7c4.9-3.9,9.8-7.8,14.8-11.6c8.5-6.7,16.4-14.2,26.8-17.9c3.5-1.3,6.5-3.5,9.8-5.3
			c-0.2-0.4-0.4-0.9-0.6-1.3c-3.7,1.3-7.4,2.7-11.1,4c-0.2-0.4-0.4-0.9-0.5-1.3c6.1-2.2,12.1-4.6,18.2-6.6c6.6-2.2,13.3-4,19.9-5.9
			c11.7-3.5,23.8-2.8,35.8-2.8c12,0.1,23.9,0.6,36.5,1c-0.9-1.1-1.4-1.7-1.8-2.2c4.7-0.6,9.5-2.2,13.8-1.5
			c22.1,3.8,41.2,14.2,59.1,27.6c14.5,10.9,27.8,23.1,38.8,37.4c6.7,8.7,12.9,18.1,18.1,27.8c5.8,10.9,10.2,22.5,16,35.4
			c0.3-3.8,1.1-6.6,0.6-9c-1.7-7-3.9-14-6.1-20.9c-1.9-6-3.6-12-6.1-17.7c-2-4.3-5.1-8.1-7.8-12.1c-3.8-5.6-7.5-11.1-11.3-16.7
			c0.4-0.3,0.7-0.5,1.1-0.8c10.6,12.6,33.4,35.1,33.8,33.7c3.2,3.4,6.2,6.5,8.6,8.9c1.9,5.9,3.7,11.3,5.5,16.6
			c5.7,17.1,8.8,34.7,9.1,52.7c0.2,12-0.2,24.1-1.7,36c-1.5,12.1-4.2,24.2-7.5,35.9c-3.4,12.3-6.9,24.7-12.4,36.1
			c-5,10.5-12.5,19.9-19.1,29.6c-4,5.9-10,11-12.2,17.4c-3,9-10.4,13.5-16.4,18.9c-4.7,4.2-8.7,9.3-13.8,12.9
			c-12.6,9.1-25.7,17.3-39.9,23.8c-7.1,3.3-14.1,6.8-21.2,10.1c-0.5,0.2-1,0.8-1.3,0.7c-8.4-3.1-14.8,6.4-23.3,3.5
			c-1.4-0.5-3.7,1.4-5.6,2.3c-0.3,0.1-0.4,0.7-0.7,0.7c-5.3,0.7-10.7,1.6-16,2c-4.3,0.3-8.6,0.2-12.8,0.1c-2,0-4-0.6-6.1-0.6
			c-14-0.1-27.5-2.8-41-6.4c23.7,2.6,47.3,5.5,70.9,0.3c0-0.5,0-1,0-1.5c-16.2,0.5-32.5,1-48.7,1.5c0-0.5-0.1-1.1-0.1-1.6
			c23.8-2.1,47.9-3.3,70.2-13.3c-3.7,0.8-7.4,1.5-11.1,2.3c0-0.1-0.1-0.2-0.1-0.4c12.6-4.4,25.2-8.7,37.8-13.1
			c-0.2-0.6-0.4-1.2-0.5-1.8c-10.8,3.1-21.6,6.2-32.5,9.3c-0.1-0.4-0.2-0.9-0.3-1.3c1.9-0.7,3.9-1.4,5.8-2.1
			c-0.1-0.5-0.2-0.9-0.3-1.4c-19,5.1-38.1,8.9-57.8,8.6c11.1-2.4,22.9-1.5,33.5-6.6c-13.5,0.8-26.9,1.6-40.4,2.5
			c0-0.6-0.1-1.1-0.1-1.7c3.9-0.2,7.7-0.4,11.6-0.6c0-0.4,0-0.8,0-1.2c-11.6-0.3-23.1-0.7-34.7-1c0-0.5,0-0.9,0-1.4
			c1.6,0.1,3.3,0.4,4.9,0.2c4.2-0.5,8.3-1.4,12.4-2.3c16.4-3.9,33.2-6.3,49.8-9.4c1.9-0.4,3.7-1.4,5.2-2.9c-8.7,1.4-17.4,3.6-26.1,4
			c-8.5,0.3-17-1.2-25.3-2.8c15.7-3.1,31.3-6.2,47-9.3c-0.1-0.5-0.1-0.9-0.2-1.4c-16.3,1.9-32.7,3.8-49,5.7
			c-0.1-0.6-0.2-1.2-0.3-1.7c10.4-2.1,20.8-4.1,32.3-6.4c-9.9-4.9-18.2-1.4-27,1c0.4-1,0.7-1.7,1.2-2.7c-2.8,0.1-5.5,0.1-9,0.2
			c15.4-3.1,29.9-6.1,44.5-9c0-0.5-0.1-1-0.1-1.6c-1.2-0.1-2.4-0.3-3.7-0.4c8.2-2.7,16.3-4.9,24.2-8c23-9.1,43.8-21.8,60.3-40.3
			c15-16.9,25.2-36.7,32.6-58.3c7.1-20.6,8.9-41.7,9.2-63.1c0.2-12.3-1.6-24.5-6.1-35.8c-2.7-6.6-3.5-14.4-10.2-19.3
			c-2.2-1.6-3.3-4.9-4.7-7.5c-7.6-13.8-19.6-23-32.3-31.7c-14.1-9.7-29.7-15.9-46.4-18.6c-11.5-1.8-23.4-1.3-35.1-1.6
			c-5.9-0.2-11.8,0-17.6,0.4c-2.8,0.2-5.5,1.5-8.3,1.9c-1.3,0.2-2.8-0.6-4.2-0.9c-5.1,2.2-10.3,4.6-15.7,6.7
			c-6.8,2.7-13.6,5.1-20.9,7.8c0.3,0.6-0.1-0.2-1.1-2.3c-14.3,13.8-28.3,27.1-43,41.3c1-1.7,1.3-2.8,2.1-3.7c1-1.1,2.7-1.9,3.4-3.1
			c5.6-9.5,12.6-17.7,21.2-24.4c17.3-13.5,36.7-22.8,58.6-25.7c7.8-1.1,15.9-0.6,23.8-1.1c9.2-0.6,18.3-2,27.4-1.9
			c7.3,0.1,14.7,1.8,22,2.8c0.9,0.1,1.9,0.2,4,0.5c-12.7-7.5-26.3-5-39.4-9.4c2.2-2.1,4.1-3.7,6.5-6c-6.3-0.6-12-1.1-17.7-1.7
			c0-0.6,0.1-1.3,0.1-1.9c9.3,0.1,18.6,0.2,27.9,0.4c0-0.5,0-0.9,0.1-1.4c-3.5-0.3-7-0.5-11.4-0.9c1.7-0.8,2.6-1.2,4.1-1.8
			c-1.5-0.4-2.6-0.6-3.6-0.8c0-0.3-0.1-0.6-0.1-1c3.3-0.3,6.7-0.7,10-1c0-0.5,0-1,0-1.5c-7.6-0.3-15.2-1-22.7-0.7
			c-8.6,0.3-17.1,1.5-25.7,2c-10.2,0.5-18.7,5.8-27.6,9.6c-8.7,3.7-17.4,7.5-25.6,12.1c-7,4-13.4,9.2-20.1,13.9
			c0.3,0.4,0.5,0.8,0.8,1.2c6.7-4.5,13.2-9.3,20-13.5c4.9-3,10.2-5.4,15.5-7.7c5.5-2.3,11.2-4.1,17-6.2c-0.2,1-0.3,1.8-0.6,3.6
			c2.4-1.5,4.1-2.6,5.8-3.6c0.2,0.3,0.4,0.7,0.6,1c-4.4,2.8-8.9,5.6-14.6,9.2c4.5-1,7.9-1.7,11.2-2.4c0.2,0.6,0.4,1.2,0.6,1.8
			c-1.5,0.6-3.1,1.2-4.6,1.9c-1.8,0.8-3.9,1.4-5.1,2.8c-1.8,1.9-3.4,3.5-6.2,2.3c-0.5-0.2-1.4,0-1.9,0.3c-5.8,3.3-11.7,6.2-17.1,10
			c-6.3,4.4-12.2,9.5-18.6,14.5c-0.3-1.5-0.6-2.5-1.1-4.9c-2.4,2.8-4.2,5.3-6.5,7.3c-2.5,2.3-5.2,5.3-8.3,5.9
			c-3.7,0.7-4.3,3.5-6.1,5.5c-3.2,3.7-6.7,7.1-9.5,11.1c-1.3,1.9-1.3,4.8-2.1,7.2c-0.4,1.3-1.3,2.4-2.8,3.3c0.3-1.1,0.6-2.2,1.3-4.6
			c-2,2.3-3.1,3.7-4.5,5.3c0.9,1,1.6,1.9,2.5,2.9c1-1,1.9-1.8,3.2-3c0,2.4,0.6,4.6-0.1,6.3c-3.7,10.4-7.7,20.6-11.4,31
			c-0.7,2.1-0.4,4.5-0.7,6.8c-0.3,2-0.7,3.9-1.1,5.9c-0.4-0.1-0.9-0.2-1.3-0.2c1.2-8,2.4-16.1,3.8-25c-4.5,7-8.8,24.4-8,36.8
			c0.8,12,3,23.8,4.6,35.4c-1.8-1.6-4-3.5-6.8-6c1,13.2,8.6,22.9,13.3,33.7c-4.2-3.9-9-7.2-12.3-11.7c-2.7-3.5-4-8.3-5.2-12.7
			c-1.8-6.3-3-12.8-5.6-19.5c-0.7,3.7-1.5,7.5-2.2,11.2c-0.3,0-0.6,0.1-0.9,0.1c-1.4-7.6-2.8-15.3-4.2-23.1
			c-3.4,10.3-2,20.5-0.3,31.5c0.9-1.1,1.4-1.5,1.6-2.1s0.1-1.1,0.2-2.2c0.4,0.9,0.8,1.3,0.8,1.7c0.5,9.3,0.4,18.7,5,27.2
			c1.5,2.8,3.2,5.4,4.3,8.5c9.2,3.7,11.5,14.2,19.3,19.7c-1.2-2.5-2.3-4.9-3.5-7.3c7,6.5,13.9,12.8,21.4,19.8
			c0.4-2.2,0.6-3.4,0.9-4.9c1.9,2.4,3.3,4.7,5.2,6.5c1.8,1.7,3.9,3.2,6.2,4.2c6.3,2.6,8.5,8.5,10.5,13.8c2.5,6.6,2.9,13.9,5,20.7
			c3.4,11.4-3,17.8-11.1,23.3c-6,4.1-12.3,8.4-19.8,8.7c-4.1,0.2-8.2-1.8-12.3-2.7c-2.4-0.5-4.9-1-7.3-1.2
			c-9.8-1-19.3-3.8-25.6-11.4c-7.6-9.2-14.7-19-20.3-29.4c-11.7-21.9-21.7-44.7-29.9-68.1c-6.1-17.4-8.8-35.7-8.4-54.3
			c0.2-7.4,0.3-14.9,0.9-22.3c0.2-2.6,1.8-5,2.8-7.5c0.2-0.6,0.5-1.3,0.4-1.9c-1.2-13.2,4.9-24.5,9.5-36.1
			c2.2-5.5,4.7-10.9,7.2-16.3c-7.2,24.6-17.8,48.5-14.5,76.4c0.7-4.2,1.1-7.2,1.6-10.2c0.5-3.3,1.1-6.5,1.6-9.8
			c1.5-9.1,2.2-18.4,4.8-27.1c3-9.8,7.4-19.2,11.8-28.5c3.6-7.6,7.6-15.2,12.5-22c5.1-7,11.6-12.9,17.3-19.4c2.9-3.4,5-7.5,8.1-10.8
			c5.6-6.1,11.6-11.8,17.5-17.6c1.9-1.9,3.9-3.5,5.9-5.3c0.3,0.4,0.7,0.7,1,1.1c-4.7,4.6-9.4,9.2-14,13.8c0.3,0.3,0.7,0.7,1,1
			c5.7-5.1,11.5-10.2,17.2-15.4c0.4,0.4,0.7,0.8,1.1,1.2c-2.7,2.8-5.5,5.5-8,8.6c-2.2,2.7-4.1,5.8-6.1,8.7c0.5,0.4,0.9,0.8,1.4,1.2
			c3.1-2.5,6.2-5.1,9.2-7.6c0.2,0.2,0.4,0.3,0.5,0.5c-1.8,2.2-3.6,4.5-5.9,7.3c4-1.9,7.3-3.4,10.5-5c-10.8,14.6-25.8,25.4-32.9,42.7
			c8.1-9,16.3-18.1,24.4-27.1c0.3,0.2,0.5,0.4,0.8,0.6c-0.7,1.1-1.3,2.2-2,3.3c0.1,0.2,0.2,0.3,0.4,0.5c2.5-2.1,5-4.2,7.4-6.2
			c0.3,0.2,0.6,0.5,0.9,0.7c-4.4,5.4-8.7,10.9-12.3,15.4c6.6-4.5,14.2-9.2,21.3-14.5c7.4-5.6,14.6-11.2,22.6-15.8
			c0.3,0.5,0.7,1,1,1.4c-5.2,3.7-10.5,7.4-15.8,11c-5.3,3.6-10.4,7.2-11.8,14c-2.9,3.1-5.9,6.3-8.8,9.4c0.6,0.5,1.3,1,1.9,1.5
			C224.6,166.8,227.1,163.2,229.5,159.7z M416.7,128c5.9,3.7,12.8,6.3,17.2,11.3c4.6,5.1,9.6,8.4,15.5,10.9c0.6,0.3,1.1,0.7,1.7,1.1
			c14.2,10,24.6,23.5,34.2,37.7c4.1,6.2,8.2,12.4,12.2,18.6c-3.1-12.6-9.5-23.5-16.9-33.9c-1.9-2.7-4.1-6.3-6.8-7
			c-6.1-1.6-8.9-6.6-12.5-10.4C448.7,143,434.4,132.9,416.7,128z M364.9,438.5c0,0.1,0,0.1,0.1,0.2c6.3-2.3,12.5-4.7,18.8-7
			c-0.2-0.4-0.4-0.9-0.6-1.3C377,433.1,371,435.8,364.9,438.5z M484,224.2c-1.2-9-3.6-14.3-6.9-16.2
			C479.5,213.7,481.7,219,484,224.2z M424.9,463.2c0.3,0.4,0.5,0.8,0.8,1.2c4.3-2.5,8.5-5,12.8-7.6c-0.3-0.5-0.6-1-0.9-1.5
			C433.3,457.9,429.1,460.5,424.9,463.2z M357.1,114.5c-0.1-0.7-0.3-1.3-0.4-2c-4.6,0.6-9.1,1.2-13.7,1.8c0,0.5,0.1,1,0.1,1.4
			C347.8,115.4,352.5,114.9,357.1,114.5z"/>
		<path class="st13" d="M467.9,317.8c-0.7,4.5-0.6,9.2-2.2,13.4c-3.3,8.8-7.1,17.4-11.5,25.7c-3.1,5.9-7.7,11-11.5,16.7
			c-7.5,11.2-17.6,20-28.2,28c-6.6,5-13.9,9-21,13.1c-1.5,0.9-3.8,0.3-6.1,0.1c42-19.9,68.4-52.6,80.6-96.9L467.9,317.8z"/>
		<path class="st13" d="M421.8,95.5c-1.7-0.3-5-0.9-8.4-1.6c0.1-0.6,0.1-1.2,0.2-1.8c5.3,0.5,10.7,0.8,16,1.7
			c4.3,0.7,8.6,1.8,12.6,3.5c3,1.3,7.5,2.5,4.8,7.8c-0.1,0.3,0.7,1.1,1,1.9C440.4,102.1,431.3,100.2,421.8,95.5z"/>
		<path class="st13" d="M317.6,89.9c-0.4,0.2-0.8,0.6-1.3,0.7c-12.8,4.4-25.5,8.7-38.3,13c-5.2,1.7-10.4,3.2-15.6,4.8
			c-0.2-0.5-0.4-0.9-0.5-1.4c5.2-2,10.4-4.1,15.6-6.1c7.9-3.1,15.6-6.7,23.8-9.1c5.2-1.5,11-1.3,16.5-1.8L317.6,89.9z"/>
		<path class="st13" d="M412.7,98.9c8.7,2.8,17.6,5.6,26.6,8.4c-0.2,0.5-0.3,1.1-0.5,1.6c-5.9,1.8-12.3-0.8-14.8-4.3
			C420.3,99.8,413.4,106.6,412.7,98.9z"/>
		<path class="st13" d="M272.7,92.3c2.3-1.6,3.9-2.7,5.4-3.8c0.3,0.4,0.6,0.8,0.9,1.2c-4.3,3.1-8.6,6.2-13.3,9.6
			c-1.6-7.2,1.4-9.6,6.9-10.2C272.7,90,272.7,90.9,272.7,92.3z"/>
		<path class="st13" d="M468,317.7c1.5-5.5,3.1-11.1,4.7-16.6c0.1,0,0.3,0,0.4,0.1c-0.4,2.9-0.8,5.7-1.2,8.6c-0.1,0.8-0.6,2-0.3,2.3
			c3.8,3.5,1,4-2,4.6C469,316.8,468.5,317.4,468,317.7C467.9,317.8,468,317.7,468,317.7z"/>
		<path class="st13" d="M476.1,318.1c-2.3,6.9-4.7,13.7-7,20.6c-0.4-0.1-0.9-0.3-1.3-0.4c2.3-6.9,4.7-13.7,7-20.6
			C475.2,317.8,475.7,317.9,476.1,318.1z"/>
		<path class="st13" d="M404.4,102.9c-6.4-0.8-12.8-1.6-19.3-2.5c0-0.4,0.1-0.7,0.1-1.1c6.4,0.8,12.9,1.6,19.3,2.4
			C404.5,102.2,404.5,102.5,404.4,102.9z"/>
		<path class="st13" d="M317.6,90.1c5.3-1.2,10.6-2.4,16-3.6c0.1,0.6,0.2,1.2,0.3,1.9c-5.4,0.5-10.9,1-16.3,1.5
			C317.6,89.9,317.6,90.1,317.6,90.1z"/>
		<path class="st5" d="M229.5,159.7c-2.5,3.6-4.9,7.2-7.4,10.8c-0.6-0.5-1.3-1-1.9-1.5c2.9-3.1,5.9-6.3,8.8-9.4L229.5,159.7z"/>
		<path class="st5" d="M484,224.2c-2.2-5.3-4.5-10.5-6.9-16.2C480.3,209.9,482.8,215.3,484,224.2z"/>
	</g>
	<g id="Layer_2">
		<path class="st12" d="M117.8,64.8c0,0,121.6,68.9,125.4,71.8s77.7,97.9,80.6,101.1c4.2,4.7,12.7,6.9,14.3,6.1
			c3-1.5,30.4-65.9,30.7-68.9c0.2-1.2-3.1-0.9-5.9-1.9c-2.3-0.9,3.4-3.6,20.8-10.4c0,0,3.6-1.3,3.7,0c0.1,1.2,1.3,0.4,2,0.3
			c0.6-0.1,12.4,3.4,13.6,4.1s8.5,10.2,9.2,11.4s0.8,4-2.4,3.9s6.4,6.4,8.4,9.4s0.5,3.4-1.9,2.4s-19.5-9.9-19.5-9.9s-2-1.4-2.8,0.9
			s-21.2,65.5-18.7,65.7c0.6,0,9.2,1.3,10.2,1.1s7.9-6.3,12.5-9.5c25-10.5,94.8-38.4,94.8-38.4s4.4-2.2,7.7-2.5
			c2.6-0.2,4.6-0.2,19.5-0.2c27.8-0.2,91.7-0.4,94.3-0.3c3.6,0.1,8.9,0.4,3.3,2.3c-43.9,15.4-141.8,79.2-163.6,91.4
			c-27.5,15.5-36,21.3-43.8,23.2s-24.2,3.5-29.9,4.2c-2.8,0.3-8.9,1.2-14.8,0.5c-2.2,1.8-17.8,12.1-17.2,12.3S208,668.2,208,668.2
			l80.2-299.1c0,0-10.4-20.4-12.2-26.1c-2.4-7.7-9.6-44.5-11.5-47.3c-0.2-0.4-6.8-0.4-18-10.1s-31.2-26.7-36-32.4
			s-9.4-12.2-10.9-15.6S117.8,64.8,117.8,64.8z"/>
		<path class="st2" d="M213.5,236.6c-3.7-2.1-12.6-3.3-16-4c-0.8-0.1-0.1,0.3,2.3,5.5c1.8,3.8,5,8.8,8.6,12.9
			c6.8,7.9,15,14.4,16,15.3c8.4,7.6,21.9,18.6,24.6,20.2c2.2,1.4,18.5,3.4,16.4-8.6c-1-5.9-6.6-12.6-13.7-14.6
			C232,257.8,229.1,245.7,213.5,236.6C211,235.1,216.1,238.1,213.5,236.6z"/>
		<path class="st4" d="M286,257.1c-4.2,2.4-4.8,7.1-9.7,10.7s-6.4,4.8-9.8,7.4s-4.2,2.9-3.7,8.7s2.9,8.7,4.5,16s4.7,36,10.6,48.4
			c5.9,12.3,7.9,15.6,10.4,20.9c32.4-14.5,39.7-2.8,30.7-38.8c-3-12.1,8.3-9.1,7-14.8c-0.7-3.1,4.5-23.6,11.5-30
			c3.8-3.5,7-6.7,6.6-7.7c-1-2.2-0.5-24.5-1.2-26.1s-12.7-9.1-15.1-11c-4.7-3.6-10.3-9-12-12.3c-1.1-2.2-29.2-43.4-34.4-38.9
			c-1,0.9-0.8,9.1,3.5,16.3c8.3,13.7,16.2,41.7,15.3,41.8c-4.1,0.7-10.2,7-10.2,7L286,257.1z"/>
		<path class="st1" d="M325.5,242.1c-0.3,0,0.2,9.2,0.2,11.2c0,2,1.1,31.2,1.3,33.2c0.2,2.1,0.6,18.7,0.8,22c0.1,2.5,0.4-6.4,0.3-9
			c-0.1-3.8-0.1-8-0.4-12s-1.2-30.6-1.2-30.6S326,242.1,325.5,242.1z"/>
		<path class="st4" d="M386.9,266.8c0,0-0.7,5-0.9,6.8s-2.8,6.1-3.2,7.5s-2,6.9-2.5,8.6s0.5,6.8-2,7.8s-7.6-2.6-9.1-2.2s-6.5-1-8,0
			s-2.4,0-4.5,0s-4-1.5-2.5-3.8s7-7.4,8.8-7.8s9.7-5.7,10.7-5.8s6.5-4.1,7.8-5.3S386.9,266.8,386.9,266.8z"/>
		<path class="st4" d="M389.9,313.9c1.6-1.2,6.1-2.6,9.4-2.9c2.3-0.2,8.6,0.4,10.8,0.7c3.2,0.4,7.7-1.2,9.6-2.5
			c3.6-2.3,6.4,1.4,4.4,2.4s-10.2,5.9-17.7,7.1c-3.2,0.5-10.2,1.5-14.3,1.9c-3.5,0.3-6.8,1.1-9.9,1c-3.2-0.1-3.2-2.6-2.2-5.5
			C381.4,312.6,385.8,317.1,389.9,313.9C391.5,312.7,385.8,317.1,389.9,313.9z"/>
		<path class="st8" d="M387.7,163.2c0,0,2.4,0.9,3.6,2.3c1.3,1.4,4.2,4.2,5.2,5.8s2,2.6,3.2,3.6s2.1,2.1,3.1,3s1.5,1.7,2.2,2.2
			s1.2,1.2,1.6,2.2s0.9,2.1,2.1,3.3s4.3,3.5,5.9,4.4s6.1,4.5,3.6,4.6c-2.1,0.1-5.8-1.8-8.1-3.1s-4.7-2.7-7-3.8s-4.9-2.5-6.7-3.2
			s-2.2,0-3.2,3.3c0,0-1.1,4.1-2.3,6.9s-2.1,4.7-3.2,8.8c-1.2,4.6-2.9,7.7-3.9,12.2s-2.9,9.2-3.4,12.2s-2,6.8-2.7,10.3
			s-1.8,8.2-2.4,11.3c-0.5,2.5-3.1,4-2.6-0.1c0.5-4.5,2.1-6.2,3.2-11.9c0,0,1.4-4.2,1.9-7s2.5-7.9,2.9-10.6c0,0,1.2-4.1,1.8-6.4
			s1.9-5.3,2.8-8.9c0,0,1.2-5,1.9-7.5s2-7.1,2.6-10s2.4-3,1.6-6.6s-0.8-4.6-1.9-8.4c-0.5-1.7-1.1-3.7-1.4-5.3
			C388,164.6,387.7,163.2,387.7,163.2z"/>
		<path class="st8" d="M379.3,256.6c0,0-6.9,4.3-8.9,5.9s-4,4.4-6.4,5.8s-7.7,5.5-9,6.5s-3.8,3-5.4,4.3s-3.1,2.9-2.5,1.4
			s2.1-2.9,3.7-4.9s4.5-3.7,6.8-5.8s4.1-4.9,6.2-6.9s3.4-2.6,4.8-3.8s2.1-1,0.5-1.7s-1.2-2.2-3.5,0s-1.9,3.2-4.6,5.5
			s-3.6,4.2-5.7,6.6s-2.8,3.4-3.8,3.6s-1.7,1.2-0.6-1.9s2.8-5.1,4-8.6s3.9-8.2,5.4-11.6s2.4-3.1,4.2-6.9s3.5-8.3,4.6-11.3
			s1.5-7.2,2.8-10.5s3.4-5.1,4.5-8.8s6-19.6,9.4-22.4c4-3.3-3.1,16.9-3.5,17.7s-2.7,6.2-3.6,7.8s-1.9,7.1-2.9,8.9s-2.1,5.1-3.1,6.7
			s-2,8-2.4,9s-4.5,10-4.5,10.6s1.1,1.8,2.2,2.3S379.3,256.6,379.3,256.6z"/>
		<path class="st6" d="M390.3,182.3c0,0,1.2-2.9,1.3-2.3c0.2,1.2,0.7,1.8,0.3,2.9s-1.3,2.3-1.9,4.8s-1.2,4.8-1.8,6.8
			s-0.9,3.2-1.5,5.4s-3.2,11.2-3.2,11.2s-5.2,18.3-6,21.4c-0.9,3.2-2.9,10.1-3.7,12.3c-0.8,2.3-1.4,6.7-0.4,6.8
			c0.7,0.1,0.9-0.6,1.4-1.2s1,0.6,3,0.6s6.6,0.6,7.3,0.6c1.2,0,0.2,0.2-2.9,2.8c-1.4,1.2-2.7,2-3.6,2.5c-1.3,0.3-1.6,0.2-3.3-0.2
			c-2-0.5-3.3-0.6-5.2-1.2s-4.2-1.4-5.6-2.8c-0.6-1.9,1.5-4.9,2.6-8.1c0.6-1.9,5-13.3,6.6-18.7c1.2-4.2,3.2-8.4,4.7-12.8
			c1.4-4,2.8-7.8,4.4-11.4s3.1-10.3,4.2-12.3C388.9,186.1,389,185.6,390.3,182.3z"/>
		<path class="st2" d="M382.8,179.2c0.4,0.1,0.2,1.5-0.2,4.6c-0.2,1.8-1.2,6.1-1.5,7.6c-0.5,2.6-1.9,5.5-2.7,7.5s-1,5.2-2.2,7.2
			s-2.6,5.8-3.4,8.2s-1.6,4.6-2.4,6.8s-1.8,7.9-3.2,10.5s-1.3,4.8-2.9,8s-1.4,4.6-2.9,6.2s-2.7-0.5-1.9-2.5c0,0,3.2-3.8,3.6-6.3
			s0.8-6.1,1.7-8.4s3.4-6.7,3.8-9.4s4.7-14.8,5.8-17.1s4-7.9,4-10.7S382.4,179.1,382.8,179.2z"/>
		<path class="st8" d="M387.7,163.2c1.2,0.6-2.7,9.8-3.6,12.4s-7.4,22.5-8.4,25.6c-1.1,3.1-5.9,16.6-7,20c-1.1,3.3-3.3,9.9-4.2,12.7
			c0,0-1.8,5.1-2.9,8.3s-2.6,6.8-3.9,10.1c-1.3,3.3-2.7,7.4-4.1,10.3c-1.4,2.8-2.6,6.2-4.1,9.1s-2.3,5.8-2.9,5.6
			c-0.6-0.2,0.8-3.3,1.3-4.9c1.5-4.4,2.5-6.1,3.6-8.7c1.7-4,3.2-8.6,4.6-12s4.6-11.9,6.2-17s4.5-10.8,5.7-15.4
			c1.2-4.7,2.2-7.5,3.5-11.1s0.5-1.8,2-6.3s2.9-7.7,4.7-13.6c1.8-5.8,3.4-10.5,4.4-13.6S387,162.8,387.7,163.2z"/>
		<path class="st6" d="M344.5,279.7c-0.6,0.2-0.5-0.8-0.3-2.4c0.2-2,0.6-5,1.3-7.4c1.3-4.2,2.2-10,3.4-14s5.5-17.9,6.4-20
			s6.3-17.7,7.4-19.9s3-10.8,4-12.7s1.5-3.9,2.4-6.2c1-2.6,2.1-6.3,3-8.1c1.2-2.4,2.5-8.5,4.5-10.3c2.8-2.6,1.8-3.8-2-4.3
			c-3.9-0.5-4.7-1.8-2.2-2.5c2.5-0.8,3.9-1.5,6-2.5c2.2-1,4.6-3.3,5.2-3.8s1.7-0.9,0.5,2.3c-0.9,2.5-2.2,4.3-2.6,6.8
			c-0.2,1.4-1.2,6-2.1,7.4s-1.7,3.9-2.8,6.7c-1.9,4.9-2.8,7.5-3.5,10.2c-0.7,2.5-2.4,7.6-4,10.8s-3.9,10.9-5,14.1s-3.9,10-4.8,12.4
			s-2,6.8-3.5,11.6c-1.4,4.5-6.7,18.3-7.2,20S345.7,279.4,344.5,279.7z"/>
		<path class="st8" d="M344,277.8c0,0-0.4-5.2-0.8-8.2s-1.2-7.3-2-11.2c-0.8-3.9-0.4-5.2-0.1-7.5s1.8-2.8,3.8-6.2
			c2.2-3.7,4.8-9.9,6.5-13c2.6-4.9,8.2-18.5,9.4-21.7c0,0,3.6-9.3,4.4-12.2c1-3.6,2.2-9.6,3.7-12.8c1.7-3.6,1.6-6,3.1-6.7
			s4.4-2.2,1.7-2.8c-2.5-0.6-4.9-1.9-6.5-2.4c-2.6-0.9-1.2-2.2,0-2.6c3.8-1.3,9.6-3.5,12.2-4.7c4.2-1.9,7.6-2.4,5.2-0.4
			c-1.6,1.3-2,1.8-3.6,2.9c-2,1.4-4,2.3-5.6,3.1c-0.9,0.5-4.4,0.8-4.1,1.7s7.4,1.3,7.1,3.3s-1.1,1.9-2.4,3.8s-6,16.3-7.2,19.6
			s-3.9,12.2-5,14.9s-4.2,11.5-5,14.5s-3.4,8.6-4,10.3s-3.3,10.4-3.9,12.3s-3.6,14-4.3,16.6S344,277.8,344,277.8z"/>
		<path class="st6" d="M325.3,239.1c-1.1-1.3-1.2,1.3,0,4.6c1.1,3.1,5,3.6,8.6,5c2.9,1.1,5,1.8,6.8,2.4c1.7,0.6,1.3-1.2,1.7-2.6
			c0.8-2.3,1.8-1,3.5-4.5s2.8-6.7,4.9-9.9s2.2-4.5,3.9-8s3.8-9.9,4.6-12s3.3-9.5,3.5-10.1c0.9-2.2,0.1-2.8-3.4,3.4
			c-1.7,3.1-7.6,15.8-8.9,18.1s-3.5,6.4-5,9.3c-1.2,2.4-3.8,5.7-4.9,7.2c-1.2,1.6-1.6,2.5-4.9,1.8
			C332.9,243.5,326.5,240.6,325.3,239.1z"/>
		<path class="st6" d="M392.2,175c-0.2,1.2,0,4.4,0.8,5.5c0.6,0.8,7.4,2.7,10.3,3.6c1.1,0.3,2.3,0.2,2.8-0.3c1.1-1-1.4-3.8-3.7-5.6
			S393.6,175.2,392.2,175z"/>
		<path class="st8" d="M409.5,182.1c0,0,1.4,0.4,2.3-0.4s1-2.3,0.1-3.6c-0.9-1-2-1.8-3.5-3.1s-5.3-4.3-7.4-5.2s-5.7-2.2-7.1-2.4
			c0.3,0.9,1.3,1.4,2.3,2.4c1.7,1.6,6.9,6.2,6.9,6.2L409.5,182.1z"/>
		<path class="st8" d="M272.4,326.1c-1.3-11.4-4.2-21.5-5-26.2c-0.7-3.8-1.1-4.9-1.6-7.3c-0.2-0.9-0.3-7.3-1-9.2
			c-0.4-1-6.6,0-9.7,0.6c-1.9,0.3-6.3,1.8-7.3,1.4c-3.2-1.4-36.3-33.5-38.8-34.4c-1.9-0.7,22.9,22.6,37.4,35.5c3.7,3.3,6,4.4,9.6,6
			c2.4,1,4.7,2.5,7,3.2c1.1,0,1.1,0,2.2,4.1C265.8,302.5,270.3,320.1,272.4,326.1z"/>
		<path class="st6" d="M261.2,292.8c-0.8-0.7-1.9-1.7-4.5-3.5c-1.7-1.1-3.8-1.5-5.3-2.6c-4.2-3.1,9.6,0.5,12.1-2.3
			c1.2-1.4,1.6-1.4,2.3,2.5c0.5,2.6,1.8,9.2,2,10.9s0.5,2,0.9,4.8s1,5.9,1.4,8.3c0.9,5.9,0.7,5.7-0.5,1.1c-1.2-4.4-2.5-8.1-3-10.9
			s-1.1-6.2-1.8-8.7c-0.2-0.5-0.6-1.3-0.9-1.3c-0.2,0-0.2,0.7-0.1,1.2c0.4,2.7,0.3,2.8-0.1,2.8C262.4,294.5,261.9,293.5,261.2,292.8
			z"/>
		<path class="st3" d="M324.6,372.8c0,0-4.6,4-5.8,6.7s-3.2,12-5.5,16.2s-7,19.5-9,23.4s-2.8,8.7-5.1,11.5s-3.4,6.4-3.6,10.8
			s-4.2,9.2-5.8,12.2s-3.5,10.9-4.8,14s-7,11.4-7,14s-4.8,14.7-6.4,18s-5.4,9.8-7.4,14.3c-2.4,5.5-5.7,10.8-6.5,13.1
			s-3.1,9.2-4.6,13.2s-3.2,8.5-6.9,14.9s-4.5,10.4-6.6,16.3s-3.7,8.8-3.8,14.5s1.3,1.3,3.8-4.7s4.8-11.5,9.1-22s13.2-31.3,16.5-37
			s8.1-15.7,9.6-20.2s4.8-15.4,8.4-21.9s5.3-10.9,6.9-14.9s4.8-9.2,6.8-13.5s6.2-16,8-19.8s6.7-17,8.3-22.5s6.5-15.9,10.2-21
			c2.3-3.3,3.8-8.6,5.5-13.8C330.1,371.7,324.6,372.8,324.6,372.8z"/>
		<path class="st4" d="M303,377.7c0,0-11.1,37-13.3,44s-3.5,11.8-6.2,19c-3,8.1-4,15.2-5.5,19s-1.5,17.3-4.7,20.3s-6,18.1-8.6,21.7
			c-1.6,2.3-5.4,14.6-4.9,18.9c0.6,4.2-6.1,13.1-6.5,18.6c-0.3,5.4-20,57.7-22,55.3c1-11.3,6-19,8.7-29.8
			c2.8-10.8,8.8-32.6,10.4-37.6c2.5-8.1,8.8-28.9,12.1-44.3c2.5-11.6,5.7-24,7.9-32.2c0,0,4-14.2,5.6-20.8
			c3.6-14.3,12.6-52.5,14.3-59.7c1.2-5,2.9,4.3,6.7,6.3C300.6,378.4,303,377.7,303,377.7z"/>
		<path class="st10" d="M315.1,357.5c0,0,17.6-11.3,23.2-16.7c6.4-6.2,5,0.5,2.3,4.2s-6,18.2-8.9,23.8s-6.4,5.6-9.2,8.5
			c-2.3,2.5-5.9,14.2-8.4,19.5s-6.7,16.3-9.7,23.8s-2.2,10.2-5.5,17.3s-5.3,11.3-9,18.7c-4.4,8.9-7.2,16.8-10,23
			c-3.4,7.4-3.8,10.8-7.2,17.5s-7,14.2-8.7,16.8s-6.4,13.6-7.7,13.1c-2.2-0.9,1.3-10.5,3-16.8c1.5-5.3,16.8-51,19.3-59.8
			c1.7-5.9,19.8-63.4,21.2-68.5c1.7-6.3-7.1,2.5-8.5-0.5c-1.4-3.2,4-6.5,0.8-11.3C298.5,365,315.1,357.5,315.1,357.5z"/>
		<path class="st8" d="M316.2,409.8c0,0-8.1,19.4-10.9,26.1c-1,2.3-7.8,18.8-12.5,29.8c-2.8,6.7-12.5,29.7-14.6,34.7
			c0,0-1.2,0,2.1-9.2c2.9-8.2,27-69.3,31.7-79.5c6.6-14.3,15.4-35,18.8-44c0,0,10.2-27.7,12.1-29.2c2.5-1.9,5.7-4.2,5.7-4.2
			s-10.3,25.8-14.8,36s-10.8,23.9-14.3,32.6"/>
		<path class="st7" d="M287.9,370c0,0-4.3,14.3-5.4,19s-8.7,35-10.1,40s-6.4,23.3-8.2,30.3s-5.8,20.7-6.8,25s-3,11.2-4.3,15.9
			s-1.3,4.4-2.7,9.1s-2.1,8.6-2.7,11c-0.8,2.8-0.4,5.3,1.3-0.7c0,0,1.6-5.3,2.9-10.3s3.1-11.1,4.4-16s2.8-10.5,5-18.8
			s2.7-10.3,5.2-19.2s9.3-30.9,10.9-37.2s1.6-5.2,3.8-13.6s3-10.6,4.4-16.6s2-8.5,3-12.8s2.3-5.9,0.9-5.8
			C288.9,369.6,287.9,370,287.9,370z"/>
		<path class="st8" d="M243.8,137.2c0.7,3.8,2,9.1,3.4,12.9c1,2.6,2.5,10.6,5.5,16.1c2.9,5.4,6.1,12.2,7.9,15s5.1,9.4,8.1,13.4
			s6.6,12,9.1,16.5s7.3,12.3,9.9,21.5c2,6.8,4.7,10.1,0.2,19.1c-1.1,2.2-3.2,6.3-14.7,14.8c-3.6,2.6-10.7,7.6-10.8,9.4
			c-0.2,2.5-0.2,4.6,0.5,7.9c0.4,1.9,2.3,1.7,2.1-0.1c-0.2-2.3-0.6-3.5-0.7-4.8c-0.1-3,2.5-3.6,5.7-6.4c3.3-2.8,6.1-4.5,9.3-7
			c3.9-3,9.9-7.5,12.5-9.5c4.9-3.9,10-1.3,12.2,3c2.5,4.9,5.1,9.8,8.2,14.3c3.5,5,9.6,25.1,11.3,29.2c0.7,1.8,0.3,3,0.2,5
			c-0.2,3.5-0.5,5.5,0.1,12c7.4-5.1,19.9-11.3,24.6-12.8c3.8-1.2,12.3-3,18.7-3.5c7-0.5,9.8-3.1,13.3-6.5c-2.7-1-4.6-1.4-8.8-2
			c-2.1-0.3-17.6,0.6-21.7,1.4c-5.1,1.1-17.1,2.8-22.1,0.8c-1.4-2.6-2.1-3.5-4.5-9.5c-2.6-6.5-5.6-13.8-8.7-21.8
			c-3.2-8.5-6.5-19.8-10.5-27s-5-14.5-10.2-22.5s-7.8-14.8-14.5-23.5s-16.6-24.6-19.9-30.8S243.8,137.2,243.8,137.2z"/>
		<path class="st9" d="M327.2,297.5c-0.8-1.2,3.5-3.8,6.7-6.3s3.8-2.2,6.8-4.4s8.9-5.5,11.7-7.4s9.5-7.1,12.3-8.6s6.3-5.5,9.8-8.5
			c4.3-3.7,9.2-6.5,12.6-10.1s14.1-11.4,14.1-11.4c4.3-1.8,7.8-3.3,11.7-4.9s11-4.6,16-6.6s12.6-4.5,19.4-7.5s21.5-8.7,29.5-12
			c8.2-3.3,18.7-8.3,23.4-8c-3.3,3.9-9.1,7.7-12.8,9.8c-2.1,1.2-17,12.1-29.9,18.6c-12.3,6.2-22.3,11.5-24.9,13.5
			c-5.8,4.3-14.6,11.7-17.3,15.7c-4.7,7-6.2,18.8-9.5,22.3s-5,16.1-9.2,18.3c-5,2.7-15.8,7.7-17,13.5c-1.6,7.9,4.2,7.5,1,8
			c-4.8,0.8-10.4,1.5-15.5,1.1c-2-0.1-15.1,9.6-17.6,11.3c-3.2,2.1-14,10.3-16.8,12.8s-12,8.6-16.8,11.2s-18.1,10.7-21.1,11.4
			c-1.3,0.3-3.4,0.6-4.7,0.6c-1.2,0-1.2,0-1-0.6c0.2-0.6,2-1.2,3-1.6c4.7-2,7.6-3.3,11.3-5.6c3.7-2.3,6.4-3.8,11.1-6.2
			s9.5-7.2,13.3-10.5c3.5-3,10.3-8.7,13.8-12.5s7.8-7.5,13-12s11-11,15.8-15.8c5.4-5.4,8.8-8.7,10.3-13.9c2.1-6.9,3.3-10.8,5.5-19.9
			c2.6-10.4,1-8.2-7-1.4c-4,3.4-7.4,6.9-14.1,9.4c-6.3,3.1-21.2,11.6-26.3,15C333.8,297.1,328,298.7,327.2,297.5z"/>
		<path class="st6" d="M247.2,144c0,0,0.8,6,2.5,9.7s5.7,9.8,7.3,13.5s4.5,7.8,6.5,11.7s7.2,11.8,9.3,14.8s7,10.7,8.3,13.2
			s4.7,6.2,6.8,10.2s4.7,10.8,4.8,14.3s2,8.5,2.3,12.7c0.3,3.6-0.3,7.3-1.8,9.5c-0.6,0.9,3.2-1.6,5.7-3c1.3-0.8,3.8,0.3,5.1,3.1
			s2.2,4.7,4,8.2s4.2,7.5,5.8,10.3s3.7,8,5.2,11.5s4.8,11.8,6.3,14.7s1.4,6.5,2.4,9.4c0.6,1.9,1.5,4.8,5,2.3
			c4.5-3,13.5-6.3,18.3-6.9s9.3-2.5,13.8-2.4s9.9-0.3,11.9-2.2s5-2.1,0.5-3.4c-5.9-1.7-19.8-0.8-25.1,0s-9,1.9-13.8,1.8
			c-5.2-0.1-9.8,1.7-11.2-1c-4.3-8-8-19.8-12.4-29.4s-6.5-16.5-10.3-24.4s-6.2-17.4-11-25.7s-15.8-26.7-21.8-35.2
			s-13.7-22.3-17.2-27.2S247.2,144,247.2,144z"/>
		<path class="st6" d="M397.7,242.2c0,0-3,1.6-7,5.9s-6.7,6.2-9.2,8.3S366,269.9,363,272.3s-12.9,8.6-16,10.9
			c-6.3,4.7-7.8,7.2-2.3,4.3c6.5-3.4,14.7-9.2,17.7-11.1c4.8-3.1,12.2-7.3,16-10.1c3.4-2.5,6.2-4.1,10.3-7.9
			c-2.7,13.7-2.9,16.9-3.6,20.8c-0.7,3.8-2.5,9.1-3.2,11.2c-1,2.9-0.3,5.7-4.8,9.1c-3.4,2.6-7.4,5.4-11.9,9.7
			c-1.7,1.7-7.1,7.6-15.1,15.3c-2.9,2.8-7.3,5.9-10.8,9.1s-6,6.4-6.9,7.2c-12.5,10.3-14.2,14.5-8.5,10.1c3-2.3,17.5-13.1,28.3-22.2
			c7.3-6.1,12.2-10.2,14.1-11c3.4-1.5,2.7,0.4-0.4,4.5c2.5,0.1,5.6,0.1,6.9-0.1c1.9-1.6,3.1-2.5,6.1-2.5c-1.9-3.1-4.8-4.5-7.3-5.4
			c-1.5-0.6,1.8-3.5,3-4.3c7.8-5.9,11.6-10.3,14.1-16.3s2.5-10.4,4.5-14.5c2.6-5.4,3.8-17.6,7.6-23.1s5.5-9.8,12.2-13.1
			c11.2-5.6,25.5-10.7,32-16c2.6-2.1,1.7-2.7,2.5-4.6c-5.8,2.1-28.3,10.6-32.3,12.2C411.1,236,397.7,242.2,397.7,242.2z"/>
		<path class="st8" d="M264.2,277.8c-0.1,1.6-0.3,1.6,3.8,3s7.5,3.9,9.8,4.9c2.8,1.2,22.9,13,25.3,14.5s7.8,4.6,10.5,6.4
			c3.2,2.2,5.3,3.5,7.9,6.4c1.2,1.4,3,4.7,4.3,3.8c2.2-1.3,4.9-2.9,5.9-4.4c0.6-1-2.8,0.5-5.7-2.2c-3.7-3.5-8.4-4.4-12.9-7.3
			s-8-4.8-12.4-7.7s-8.5-4.8-12.9-7.4s-8.7-4.6-13.6-6.8c-4.8-2.1-5.3-2-7-2.6C265.6,277.8,263.8,276.9,264.2,277.8z"/>
		<path class="st6" d="M329,307.4c-0.6,1,0.3,3.4-2.7,1.6c-4.2-2.4-7.6-4.3-11.3-6.4c-3.7-2.1-9.2-6.2-13.9-8.7
			c-4.3-2.3-10.3-6.1-13.9-8.1s-8.5-4.9-13.4-7.1c-3.8-1.4-9.1-2.5-9.3-1.3c-0.3,1.8,6.9,3.9,8.5,4.6s11.4,6.1,16.5,8.9
			c2.3,1.3,18.7,10.2,20.2,11.4s12.7,7.5,14.8,9s3.9,3.2,5.1,1.8s2.8-1.5,2.8-3.8C332.4,308.3,329,307.4,329,307.4z"/>
	</g>
</g>
</svg>
