<svg version="1.1" id="Layer_1" xmlns="http://www.w3.org/2000/svg" xmlns:xlink="http://www.w3.org/1999/xlink" x="0px" y="0px" viewBox="-19.32 123.562 633.92 594.767" enable-background="new -19.32 123.562 633.92 594.767" reserveAspectRatio="xMidYMid meet" xml:space="preserve">
<g id="Layer_2">
	<rect x="266.289" y="149.274" fill="#FFFFFF" width="61.172" height="17.295"/>
	<rect x="275.21" y="654.42" fill="#FFFFFF" width="45.879" height="45.624"/>
	<rect x="162.551" y="186.961" fill="#FFFFFF" width="273.235" height="463.89"/>
</g>
<g transform="translate(0.000000,431.000000) scale(0.100000,-0.100000)">
	<path d="M1805.495,3052.534c-138.555-48.496-236.943-159.316-267.397-299.268c-11.113-49.888-13.838-825.767-11.113-2696.196
		l4.131-2625.566l29.077-63.73c42.959-91.455,108.086-157.979,196.753-202.266l78.96-38.799h1143.047h1143.061l78.955,38.799
		c88.672,44.365,153.799,110.811,196.758,202.266l29.072,63.73V98.633v2667.134l-29.072,63.726
		c-42.959,91.46-108.086,157.979-196.758,202.285l-78.955,38.779l-1122.304,2.793
		C1950.969,3076.084,1873.401,3074.688,1805.495,3052.534z M3233.987,2778.208c27.734-27.734,27.734-66.514,0-94.189
		c-18.037-18.022-60.938-22.153-260.483-22.153c-254.966,0-271.597,4.131-271.597,69.248s16.631,69.307,271.597,69.307
		C3173.049,2800.361,3215.969,2796.235,3233.987,2778.208z M4295.295,133.232v-2251.455H2979.021H1662.8V133.232v2251.46H2979.07
		h1316.225V133.232z M3099.612-2295.566c59.6-41.572,91.465-117.734,83.145-191.172c-12.51-116.406-110.811-195.361-225.83-181.523
		c-266.001,29.072-230.01,429.512,37.383,407.354C3030.295-2263.71,3077.395-2278.945,3099.612-2295.566z"/>
</g>
</svg>
