<svg version="1.1" id="Layer_1" xmlns="http://www.w3.org/2000/svg" xmlns:xlink="http://www.w3.org/1999/xlink" x="0px" y="0px" viewBox="41.64 164.938 512 512" enable-background="new 41.64 164.938 512 512" reserveAspectRatio="xMidYMid meet" xml:space="preserve">
<g id="Layer_2">
	<polygon fill="#FFFFFF" stroke="#000000" stroke-miterlimit="10" points="501.14,664.494 96.14,664.494 96.14,177.395 
		411.14,177.395 501.14,251.118 	"/>
</g>
<g>
	<g transform="translate(0.000000,512.000000) scale(0.100000,-0.100000)">
		<path d="M1023.469,3456.567c-101.435-32.026-180.078-101.04-218.828-189.023c-15.957-38.037-17.09-271.05-14.824-2377.563
			l3.398-2335.566l30.771-45.977c39.883-60.029,118.516-122.051,181.201-143.047c46.729-15,196.025-15.996,1987.588-14.004
			c1843.994,2.969,1939.717,4.014,1975.078,20.996c67.266,32.031,131.074,91.016,164.111,152.041l31.914,60.029V560.938
			c0,1771.421-2.266,1981.494-18.223,2025.488c-15.947,43.989-60.42,85.991-469.551,443.091
			c-347.588,302.08-466.104,399.102-509.443,417.124l-56.973,23.979l-1521.474-0.991
			C1338.01,3469.575,1058.762,3467.588,1023.469,3456.567z M3944.445,2880.41c0-419.111,2.256-435.103,67.266-464.097
			c29.648-13.999,96.855-15.991,474.082-15.991h438.779V501.846c0-1691.445-2.266-1901.465-18.213-1920.478l-17.09-21.992H2975.686
			c-1724.346,0-1914.658,1.973-1930.615,15.986c-15.947,14.004-18.213,239.072-18.213,2328.564
			c0,2414.609-1.133,2334.57,45.596,2349.565c9.111,2.974,659.873,6.006,1445.107,6.006l1426.885,0.996V2880.41z M4502.873,2882.441
			c162.988-140.01,296.328-258.086,296.328-263.052c0-6.006-120.781-7.988-304.307-7.002l-305.43,2.979l-3.398,263.057
			c-1.133,173.032,1.133,263.052,9.111,260.073C4200.832,3137.505,4339.885,3021.465,4502.873,2882.441z"/>
		<path d="M2656.614,1527.1c-315.674-94.038-494.619-409.077-387.461-681.172c31.904-82.021,72.92-141.006,145.898-208.037
			c117.393-108.047,241.621-158.037,395.449-158.037c147.031,0,311.143,63.008,402.285,154.013
			c63.809,65,41.016,150.049-47.861,176.016c-47.861,14.004-90.068,0.996-143.584-44.98
			c-148.223-126.016-406.934-88.037-500.391,74.023c-51.309,87.041-56.963,212.065-17.08,316.089
			c28.516,71.001,118.516,148.008,198.281,169.014c123.105,32.021,221.094,13.999,317.939-58.984
			c42.148-32.031,70.664-45.039,93.457-45.039c74.053,0,123.105,42.998,124.238,108.047c0,52.031-39.883,94.038-142.451,147.017
			C2949.494,1551.079,2796.809,1569.106,2656.614,1527.1z"/>
		<path d="M3452.092,1500.093c-35.303-23.979-59.297-71.997-51.318-101.04c3.457-11.025,94.59-212.065,204.004-446.123
			c120.781-261.064,207.393-434.101,224.541-449.101c35.302-31.025,110.537-33.018,152.685-4.023
			c21.67,15,77.51,128.056,230.195,462.109c221.084,485.098,219.961,483.11,152.754,532.114
			c-41.016,30.986-92.334,34.014-141.318,7.998c-29.648-15.991-51.318-56.006-169.834-318.071
			c-74.053-164.053-139.062-302.08-142.451-306.055c-4.531-4.961-71.797,130.044-149.297,298.115
			c-124.238,270.054-144.717,309.082-175.488,325.068C3540.959,1525.117,3487.444,1525.117,3452.092,1500.093z"/>
		<path d="M1624.045,49.717c-75.244-27.012-96.855-120.01-39.883-171.045l33.037-29.004h1357.353h1357.363l35.293,28.008
			c29.648,22.988,36.494,35.996,36.494,68.018c0,50-28.516,89.023-74.053,103.027C4286.311,61.729,1660.53,62.725,1624.045,49.717z"
			/>
		<path d="M1589.875-624.463c-55.84-48.994-51.25-113.984,11.367-158.037c22.803-15.977,111.68-18.018,1375.576-18.018
			c1337.949,0,1352.773,0,1381.289,20.01c43.271,29.98,59.287,80.039,37.617,123.037c-33.037,71.992,62.686,67.031-1426.885,67.031
			H1628.625L1589.875-624.463z"/>
	</g>
</g>
</svg>
