<svg version="1.1" id="Layer_1" xmlns="http://www.w3.org/2000/svg" xmlns:xlink="http://www.w3.org/1999/xlink" x="0px" y="0px" viewBox="0 0 232 232" enable-background="new 0 0 232 232" reserveAspectRatio="xMidYMid meet" xml:space="preserve">
<path fill="#BA5150" d="M232,116c0,3.7-6.7,7.1-7,10.7c-0.4,3.7,5.5,8.3,4.8,11.9c-0.7,3.6-7.9,5.7-9,9.2c-1.1,3.5,3.8,9.2,2.4,12.6
	c-1.4,3.4-8.9,4-10.6,7.2c-1.7,3.3,1.9,9.8-0.1,12.8c-2.1,3.1-9.5,2.2-11.8,5c-2.3,2.9,0,9.9-2.6,12.6c-2.6,2.6-9.7,0.3-12.6,2.6
	c-2.8,2.3-1.9,9.8-5,11.8c-3.1,2.1-9.6-1.6-12.8,0.1c-3.2,1.7-3.8,9.2-7.2,10.6c-3.4,1.4-9.1-3.5-12.6-2.4c-3.5,1.1-5.5,8.3-9.2,9
	c-3.6,0.7-8.2-5.2-11.9-4.8c-3.6,0.4-7,7-10.7,7c-3.7,0-7.1-6.7-10.7-7c-3.7-0.4-8.3,5.5-11.9,4.8c-3.6-0.7-5.7-7.9-9.2-9
	c-3.5-1.1-9.2,3.8-12.6,2.4c-3.4-1.4-4-8.9-7.2-10.6c-3.3-1.7-9.8,1.9-12.8-0.1c-3.1-2.1-2.2-9.5-5-11.8c-2.9-2.3-9.9,0-12.6-2.6
	c-2.6-2.6-0.3-9.7-2.6-12.6c-2.3-2.8-9.8-1.9-11.8-5c-2-3.1,1.6-9.6-0.1-12.8c-1.7-3.2-9.2-3.8-10.6-7.2c-1.4-3.4,3.5-9.1,2.4-12.6
	c-1.1-3.5-8.3-5.5-9-9.2c-0.7-3.6,5.2-8.2,4.8-11.9c-0.4-3.6-7-7-7-10.7c0-3.7,6.7-7.1,7-10.7c0.4-3.7-5.5-8.3-4.8-11.9
	c0.7-3.6,7.9-5.7,9-9.2c1.1-3.6-3.8-9.2-2.4-12.6c1.4-3.4,8.9-4,10.6-7.2c1.7-3.3-1.9-9.8,0.1-12.8c2.1-3.1,9.5-2.2,11.8-5
	c2.3-2.9,0-9.9,2.6-12.6c2.6-2.6,9.7-0.3,12.6-2.6c2.9-2.3,1.9-9.8,5-11.8c3.1-2,9.6,1.6,12.8-0.1c3.2-1.7,3.8-9.2,7.2-10.6
	c3.4-1.4,9.1,3.5,12.6,2.4c3.5-1.1,5.5-8.3,9.2-9c3.6-0.7,8.2,5.2,11.9,4.8c3.6-0.4,7-7,10.7-7c3.7,0,7.1,6.7,10.7,7
	c3.7,0.4,8.3-5.5,11.9-4.8c3.6,0.7,5.7,7.9,9.2,9c3.6,1.1,9.2-3.8,12.6-2.4c3.4,1.4,4,8.9,7.2,10.6c3.3,1.7,9.8-1.9,12.8,0.1
	c3.1,2.1,2.2,9.5,5,11.8c2.9,2.3,10,0,12.6,2.6c2.6,2.6,0.3,9.7,2.6,12.6c2.3,2.8,9.8,1.9,11.8,5c2,3.1-1.6,9.6,0.1,12.8
	c1.7,3.2,9.2,3.8,10.6,7.2c1.4,3.4-3.5,9.1-2.4,12.6c1.1,3.5,8.3,5.5,9,9.2c0.7,3.6-5.2,8.2-4.8,11.9C225.3,108.9,232,112.3,232,116
	z"/>
<path fill="#ED8074" d="M116,207.9c-50.7,0-91.9-41.2-91.9-91.9c0-50.7,41.2-91.9,91.9-91.9c50.7,0,91.9,41.2,91.9,91.9
	C207.9,166.7,166.7,207.9,116,207.9z M116,25.1c-50.1,0-90.9,40.8-90.9,90.9c0,50.1,40.8,90.9,90.9,90.9c50.1,0,90.9-40.8,90.9-90.9
	C206.9,65.9,166.1,25.1,116,25.1z"/>
<path fill="#EB7F71" d="M116,14.6C60,14.6,14.6,60,14.6,116c0,56,45.4,101.4,101.4,101.4c56,0,101.4-45.4,101.4-101.4
	C217.4,60,172,14.6,116,14.6z M116,214.5c-54.4,0-98.5-44.1-98.5-98.5c0-54.4,44.1-98.5,98.5-98.5c54.4,0,98.5,44.1,98.5,98.5
	C214.5,170.4,170.4,214.5,116,214.5z"/>
<g id="Bottom1_15_">
	<g>
		<path fill="#E4E5E5" d="M129.4,134h-23.2c-2,1.5-4.9,2.7,2.1,2.7c7,0,9.5,0,9.5,0s2.5,0,9.5,0C134.3,136.7,131.4,135.5,129.4,134z
			"/>
	</g>
</g>
<g id="Monitor_15_">
	<g>
		<path fill="#3F4040" d="M160.6,68.3H75c-1,0-1.9,0.8-1.9,1.9v51.3c0,1,0.8,1.9,1.9,1.9h85.6c1,0,1.9-0.8,1.9-1.9V70.2
			C162.5,69.1,161.6,68.3,160.6,68.3z"/>
	</g>
</g>
<g id="Screen_15_" display="none">
	<g display="inline">
		<rect x="76.9" y="84.1" fill="#EFF0EC" width="81.8" height="46.6"/>
	</g>
</g>
<rect x="76.4" y="72.4" fill="#BA5150" width="82" height="46"/>
<g id="Apple_7_">
	<g>
		<path fill-rule="evenodd" clip-rule="evenodd" fill="#F0EFF0" d="M118.3,120.7c0-0.2,0.1-0.3,0.2-0.4c0,0,0,0,0-0.1
			c-0.1-0.1-0.1-0.1-0.2-0.1c0,0-0.1,0-0.1,0c0,0-0.1,0-0.1,0c0,0-0.1,0-0.1,0c0,0,0,0-0.1,0c0,0-0.1,0-0.1,0c-0.1,0-0.1,0-0.2,0
			c-0.1,0-0.2,0-0.2,0.1c-0.1,0.1-0.1,0.2-0.2,0.3c0,0.1,0,0.1,0,0.2c0,0,0,0,0,0v0.1c0,0,0,0,0,0c0,0.2,0.1,0.4,0.2,0.6
			c0,0,0.1,0.1,0.1,0.1c0,0,0.1,0.1,0.1,0.1c0,0,0.1,0,0.1,0c0,0,0.1,0,0.1,0c0.1,0,0.1,0,0.2,0c0.1,0,0.1,0,0.2,0c0,0,0.1,0,0.1,0
			c0.1,0,0.1,0,0.2,0c0,0,0.1-0.1,0.1-0.1c0.1-0.1,0.1-0.2,0.2-0.3c0,0,0,0,0,0C118.4,121,118.3,120.9,118.3,120.7z M118,120.1
			c0.1,0,0.1-0.1,0.2-0.2c0-0.1,0.1-0.1,0.1-0.2c0,0,0-0.1,0-0.1h0c0,0,0,0,0,0c-0.2,0-0.3,0.2-0.3,0.4c0,0,0,0,0,0.1h0
			C117.9,120.2,117.9,120.1,118,120.1z"/>
	</g>
</g>
<g id="Bottom2_15_">
	<g>
		<path fill="#F3F2F2" d="M127.3,123.3h-19c0,0-0.1,9.2-2.1,10.7h23.2C127.4,132.5,127.3,123.3,127.3,123.3z"/>
	</g>
</g>
<g id="camera_23_">
	<g>
		<circle fill="#A2A2A2" cx="117.8" cy="70.2" r="0.5"/>
	</g>
</g>
<g id="Screen_3_">
	<g>
		<polygon fill="#BA5150" points="50.7,111.5 50.7,148.5 108.9,148.5 108.9,111.4 		"/>
	</g>
</g>
<g id="Monitor_3_">
	<g>
		<path fill="#3F4040" d="M107.5,109.9l-55.3,0c-1.3,0-2.3,1-2.3,2.3v36c0,0.6,0.2,1.2,0.6,1.6l58.6,0c0.4-0.4,0.6-1,0.6-1.6v-36
			C109.7,110.9,108.7,109.9,107.5,109.9z M107.6,147.1l-56,0v-35l56,0V147.1z"/>
	</g>
</g>
<g id="Bottom2_3_">
	<g>
		<polygon fill="#D0D1D2" points="109.1,149.7 50.5,149.7 43.2,149.7 43.2,151.1 116.4,151 116.4,149.7 		"/>
	</g>
</g>
<g id="Webcam_2_">
	<g>
		<circle fill="#919295" cx="79.8" cy="111.2" r="0.3"/>
	</g>
</g>
<g id="Bottom1_3_">
	<g>
		<path fill="#BBBBBD" d="M74.5,149.7c0,0,0.2,0.9,1,0.9h4.1c0.1,0,0.2,0,0.2,0h4.1c0.8,0,1-0.9,1-0.9H74.5z"/>
	</g>
</g>
<g id="Bottom3_2_">
	<g>
		<path fill="#E4E5E5" d="M43.2,151.1c0,0,0.4,1,4.2,1c3.8,0,32.2,0,32.2,0H80c0,0,28.4,0,32.2,0c3.8,0,4.2-1,4.2-1L43.2,151.1z"/>
	</g>
</g>
<g id="device_15_">
	<g>
		<path fill="#404141" d="M172.9,111.7h-26.6c-0.7,0-1.3,0.6-1.3,1.3v38.8c0,0.7,0.6,1.3,1.3,1.3h26.6c0.7,0,1.3-0.6,1.3-1.3V113
			C174.2,112.3,173.6,111.7,172.9,111.7z"/>
	</g>
</g>
<g id="overlay_15_">
	<g>
		<rect x="146.9" y="115.4" fill="#BA5150" width="25.4" height="34"/>
	</g>
</g>
<g id="camera_21_">
	<g>
		<circle fill="#A2A2A2" cx="159.6" cy="113.5" r="0.2"/>
	</g>
</g>
<g id="back_button_15_">
	<g>
		<path fill="#474D56" d="M159.6,150.2c-0.6,0-1,0.5-1,1.1c0,0.6,0.5,1.1,1,1.1c0.6,0,1.1-0.5,1.1-1.1
			C160.6,150.7,160.2,150.2,159.6,150.2z"/>
	</g>
</g>
<path fill="#454B54" stroke="#FFFFFF" stroke-width="5.000000e-02" stroke-miterlimit="10" d="M160,151.3c0,0.4,0,0.4-0.4,0.4
	c-0.4,0-0.4,0-0.4-0.4c0-0.4,0-0.4,0.4-0.4C160,150.9,160,150.9,160,151.3z"/>
<g id="device_3_">
	<g>
		<path fill="#404141" d="M152.7,127.4h-18.2c-0.5,0-0.9,0.4-0.9,0.9v26.6c0,0.5,0.4,0.9,0.9,0.9h18.2c0.5,0,0.9-0.4,0.9-0.9v-26.6
			C153.6,127.8,153.2,127.4,152.7,127.4z"/>
	</g>
</g>
<g id="overlay_3_">
	<g>
		<rect x="134.9" y="129.9" fill="#BA5150" width="17.4" height="23.3"/>
	</g>
</g>
<g id="camera_4_">
	<g>
		<circle fill="#A2A2A2" cx="143.6" cy="128.7" r="0.2"/>
	</g>
</g>
<g id="back_button_3_">
	<g>
		<circle fill="#474D56" cx="143.6" cy="154.5" r="0.7"/>
	</g>
</g>
<path fill="#454B54" stroke="#FFFFFF" stroke-width="5.000000e-02" stroke-miterlimit="10" d="M143.9,154.5c0,0.3,0,0.3-0.3,0.3
	c-0.3,0-0.3,0-0.3-0.3c0-0.3,0-0.3,0.3-0.3C143.9,154.3,143.9,154.3,143.9,154.5z"/>
<g id="Shape_12_copy_2_7_">
	<g>
		<path fill="#303031" d="M185.2,130.5h-1.9c0,0-0.1,0-0.1,0.1v0.2c0,0,0,0.1,0.1,0.1h1.9c0,0,0.1,0,0.1-0.1L185.2,130.5
			C185.3,130.5,185.2,130.5,185.2,130.5z"/>
	</g>
</g>
<g id="Shape_13_copy_2_7_">
	<g>
		<path fill="#303031" d="M175.3,134.2H175c0,0-0.1,0-0.1,0.1v1c0,0,0,0.1,0.1,0.1h0.3c0,0,0.1,0,0.1-0.1L175.3,134.2
			C175.4,134.3,175.3,134.2,175.3,134.2z"/>
	</g>
</g>
<g id="Shape_14_copy_2_7_">
	<g>
		<path fill="#303031" d="M175.2,136.7H175c0,0-0.1,0-0.1,0.1v0.8c0,0,0,0.1,0.1,0.1h0.2c0,0,0.1,0,0.1-0.1L175.2,136.7
			C175.3,136.7,175.3,136.7,175.2,136.7z"/>
	</g>
</g>
<g id="Shape_15_copy_2_7_">
	<g>
		<path fill="#303031" d="M175.2,138.8H175c0,0-0.1,0-0.1,0.1v0.8c0,0,0,0.1,0.1,0.1h0.2c0,0,0.1,0,0.1-0.1L175.2,138.8
			C175.3,138.9,175.3,138.8,175.2,138.8z"/>
	</g>
</g>
<g id="Shape_2_copy_2_7_">
	<g>
		<path fill="#404141" d="M185.4,130.6H177c-1.1,0-2,0.9-2,2v22.3c0,1.1,0.9,2,2,2h8.4c1.1,0,2-0.9,2-2v-22.3
			C187.4,131.5,186.5,130.6,185.4,130.6z"/>
	</g>
</g>
<circle fill="none" stroke="#333332" stroke-width="0.1" stroke-miterlimit="10" cx="179.6" cy="133" r="0.1"/>
<path fill="none" stroke="#333332" stroke-width="0.2" stroke-miterlimit="10" d="M182.3,133c0,0.1-0.1,0.1-0.1,0.1h-1.8
	c-0.1,0-0.1,0-0.1-0.1l0,0c0-0.1,0.1-0.1,0.1-0.1h1.8C182.2,132.9,182.3,132.9,182.3,133L182.3,133z"/>
<g id="Shape_6_copy_2_7_">
	<g>
		<path fill="#BA5150" d="M186.3,134.3h-10.1c-0.1,0-0.2,0.1-0.2,0.2v18.1c0,0.1,0.1,0.2,0.2,0.2h10.1c0.1,0,0.2-0.1,0.2-0.2v-18.1
			C186.5,134.4,186.4,134.3,186.3,134.3z"/>
	</g>
</g>
<circle fill="none" stroke="#333332" stroke-width="0.2" stroke-miterlimit="10" cx="181.3" cy="132.2" r="0.2"/>
<circle fill="none" stroke="#333332" stroke-width="0.2" stroke-miterlimit="10" cx="181.3" cy="154.9" r="1.2"/>
</svg>
