<svg version="1.1" id="Layer_1" xmlns="http://www.w3.org/2000/svg" xmlns:xlink="http://www.w3.org/1999/xlink" x="0px" y="0px" viewBox="0 0 232 232" enable-background="new 0 0 232 232" reserveAspectRatio="xMidYMid meet" xml:space="preserve">
<path fill="#CC6799" d="M232,116c0,3.7-6.7,7.1-7,10.7c-0.4,3.7,5.5,8.3,4.8,11.9c-0.7,3.6-7.9,5.7-9,9.2c-1.1,3.5,3.8,9.2,2.4,12.6
	c-1.4,3.4-8.9,4-10.6,7.2c-1.7,3.3,1.9,9.8-0.1,12.8c-2.1,3.1-9.5,2.2-11.8,5c-2.3,2.9,0,9.9-2.6,12.6c-2.6,2.6-9.7,0.3-12.6,2.6
	c-2.8,2.3-1.9,9.8-5,11.8c-3.1,2.1-9.6-1.6-12.8,0.1c-3.2,1.7-3.8,9.2-7.2,10.6c-3.4,1.4-9.1-3.5-12.6-2.4c-3.5,1.1-5.5,8.3-9.2,9
	c-3.6,0.7-8.2-5.2-11.9-4.8c-3.6,0.4-7,7-10.7,7c-3.7,0-7.1-6.7-10.7-7c-3.7-0.4-8.3,5.5-11.9,4.8c-3.6-0.7-5.7-7.9-9.2-9
	c-3.5-1.1-9.2,3.8-12.6,2.4c-3.4-1.4-4-8.9-7.2-10.6c-3.3-1.7-9.8,1.9-12.8-0.1c-3.1-2.1-2.2-9.5-5-11.8c-2.9-2.3-9.9,0-12.6-2.6
	c-2.6-2.6-0.3-9.7-2.6-12.6c-2.3-2.8-9.8-1.9-11.8-5c-2-3.1,1.6-9.6-0.1-12.8c-1.7-3.2-9.2-3.8-10.6-7.2c-1.4-3.4,3.5-9.1,2.4-12.6
	c-1.1-3.5-8.3-5.5-9-9.2c-0.7-3.6,5.2-8.2,4.8-11.9c-0.4-3.6-7-7-7-10.7c0-3.7,6.7-7.1,7-10.7c0.4-3.7-5.5-8.3-4.8-11.9
	c0.7-3.6,7.9-5.7,9-9.2c1.1-3.6-3.8-9.2-2.4-12.6c1.4-3.4,8.9-4,10.6-7.2c1.7-3.3-1.9-9.8,0.1-12.8c2.1-3.1,9.5-2.2,11.8-5
	c2.3-2.9,0-9.9,2.6-12.6c2.6-2.6,9.7-0.3,12.6-2.6c2.9-2.3,1.9-9.8,5-11.8c3.1-2,9.6,1.6,12.8-0.1c3.2-1.7,3.8-9.2,7.2-10.6
	c3.4-1.4,9.1,3.5,12.6,2.4c3.5-1.1,5.5-8.3,9.2-9c3.6-0.7,8.2,5.2,11.9,4.8c3.6-0.4,7-7,10.7-7c3.7,0,7.1,6.7,10.7,7
	c3.7,0.4,8.3-5.5,11.9-4.8c3.6,0.7,5.7,7.9,9.2,9c3.5,1.1,9.2-3.8,12.6-2.4c3.4,1.4,4,8.9,7.2,10.6c3.3,1.7,9.8-1.9,12.8,0.1
	c3.1,2.1,2.2,9.5,5,11.8c2.9,2.3,10,0,12.6,2.6c2.6,2.6,0.3,9.7,2.6,12.6c2.3,2.8,9.8,1.9,11.8,5c2,3.1-1.6,9.6,0.1,12.8
	c1.7,3.2,9.2,3.8,10.6,7.2c1.4,3.4-3.5,9.1-2.4,12.6c1.1,3.5,8.3,5.5,9,9.2c0.7,3.6-5.2,8.2-4.8,11.9C225.3,108.9,232,112.3,232,116
	z"/>
<path fill="#F180B2" d="M115.6,207.9c-50.7,0-91.9-41.2-91.9-91.9c0-50.7,41.2-91.9,91.9-91.9c50.7,0,91.9,41.2,91.9,91.9
	C207.5,166.7,166.3,207.9,115.6,207.9z M115.6,25.1c-50.1,0-90.9,40.8-90.9,90.9c0,50.1,40.8,90.9,90.9,90.9
	c50.1,0,90.9-40.8,90.9-90.9C206.5,65.9,165.7,25.1,115.6,25.1z"/>
<path fill="#F180B2" d="M115.6,14.6C59.6,14.6,14.2,60,14.2,116c0,56,45.4,101.4,101.4,101.4c56,0,101.4-45.4,101.4-101.4
	C217,60,171.6,14.6,115.6,14.6z M115.6,214.5c-54.4,0-98.5-44.1-98.5-98.5c0-54.4,44.1-98.5,98.5-98.5c54.4,0,98.5,44.1,98.5,98.5
	C214.1,170.4,170,214.5,115.6,214.5z"/>
<g>
	<g>
		<path fill="#FFFFFF" d="M143.1,133.7c-0.4-0.3-0.3-1.2,1-4.2c0.5-1.2,1.7-3.1,3.8-4.9c0.2,0.8,0.4,1.5,0.4,2.2
			C148.3,131.3,145.1,133,143.1,133.7L143.1,133.7z M125.9,137.6c-0.5,0.3-1.1,0.5-1.3,0.3c-0.2-0.1,0.2-0.5,0.2-0.5s2.8-3,3.9-4.4
			c0.6-0.8,1.4-1.7,2.2-2.8c0,0.1,0,0.2,0,0.3C130.9,134.2,127.4,136.7,125.9,137.6L125.9,137.6z M103.5,127
			c-1.3,3.2-4,11.2-5.7,10.8c-1.4-0.4-2.3-6.5-0.3-12.5c1-3,3.1-6.7,4.4-8.1c2-2.3,4.3-3,4.8-2.1C107.5,116.2,104.3,125,103.5,127
			L103.5,127z M76.5,145.4c-3.7,4.1-8.9,5.6-11.1,4.3c-2.4-1.4-1.5-7.4,3.1-11.7c2.8-2.6,6.4-5,8.7-6.5c0.5-0.3,1.3-0.8,2.3-1.4
			c0.2-0.1,0.3-0.1,0.3-0.1l0,0c0.2-0.1,0.4-0.2,0.6-0.3C82,135.7,80.4,141.1,76.5,145.4L76.5,145.4z M162.9,116.2
			c-4.5,0-8.4,1.1-11.7,2.7c-1.2-2.4-2.4-4.5-2.6-6.1c-0.2-1.8-0.5-2.9-0.2-5.1c0.3-2.2,1.5-5.3,1.5-5.5s-0.3-1.3-2.9-1.4
			c-2.6,0-4.8,0.5-5.1,1.2s-0.8,2.2-1.1,3.8c-0.5,2.4-5.2,10.8-7.9,15.2c-0.9-1.7-1.6-3.2-1.8-4.4c-0.2-1.8-0.5-2.9-0.2-5.1
			s1.5-5.3,1.5-5.5c0-0.2-0.3-1.3-2.9-1.4c-2.6,0-4.8,0.5-5.1,1.2c-0.3,0.7-0.5,2.3-1.1,3.8c-0.5,1.6-6.8,15.6-8.5,19.2
			c-0.8,1.9-1.6,3.3-2.1,4.4c0,0,0,0,0,0s0,0.1-0.1,0.2c-0.4,0.9-0.7,1.3-0.7,1.3s0,0,0,0c-0.4,0.6-0.7,1.2-0.9,1.2
			c-0.1,0-0.4-1.7,0.1-4c0.9-4.9,3.2-12.5,3.2-12.7c0-0.1,0.4-1.5-1.5-2.1c-1.8-0.7-2.5,0.4-2.7,0.5c-0.2,0-0.3,0.4-0.3,0.4
			s2-8.5-3.9-8.5c-3.7,0-8.9,4.1-11.4,7.7c-1.6,0.9-5,2.7-8.7,4.7c-1.4,0.8-2.8,1.6-4.2,2.3c-0.1-0.1-0.2-0.2-0.3-0.3
			c-7.2-7.7-20.5-13.1-20-23.5C61.9,96.9,63.2,87,87.2,75c19.7-9.8,35.5-7.1,38.3-1.1c3.9,8.6-8.4,24.5-28.9,26.8
			c-7.8,0.9-11.9-2.2-12.9-3.3c-1.1-1.2-1.2-1.2-1.6-1c-0.7,0.4-0.2,1.4,0,2c0.6,1.6,3.1,4.4,7.4,5.8c3.8,1.2,12.9,1.9,24-2.4
			c12.4-4.8,22.1-18.2,19.3-29.3c-2.9-11.4-21.7-15.1-39.5-8.8C82.5,67.5,71,73.4,62.8,81.1C53,90.3,51.4,98.3,52,101.6
			c2.3,11.9,18.6,19.6,25.2,25.3c-0.3,0.2-0.6,0.3-0.9,0.5c-3.3,1.6-15.7,8.1-18.9,15c-3.5,7.8,0.6,13.4,3.3,14.2
			c8.4,2.3,17-1.9,21.7-8.8c4.6-6.9,4.1-15.9,1.9-20c0-0.1-0.1-0.1-0.1-0.2c0.8-0.5,1.7-1,2.6-1.5c1.7-1,3.3-1.9,4.7-2.7
			c-0.8,2.2-1.4,4.8-1.7,8.6c-0.4,4.4,1.5,10.2,3.8,12.4c1,1,2.3,1,3.1,1c2.8,0,4-2.3,5.4-5c1.7-3.3,3.2-7.2,3.2-7.2
			s-1.9,10.5,3.3,10.5c1.9,0,3.8-2.4,4.6-3.7c0,0,0,0,0,0s0-0.1,0.1-0.2c0.2-0.3,0.3-0.5,0.3-0.5s0,0,0-0.1c0.8-1.3,2.4-4.3,5-9.3
			c3.3-6.4,6.4-14.4,6.4-14.4s0.3,2,1.2,5.2c0.6,1.9,1.8,4,2.7,6c-0.8,1-1.2,1.7-1.2,1.7s0,0,0,0c-0.6,0.8-1.3,1.7-2,2.5
			c-2.6,3.1-5.6,6.6-6,7.6c-0.5,1.2-0.4,2.1,0.6,2.8c0.7,0.5,1.9,0.6,3.2,0.5c2.3-0.2,3.9-0.7,4.7-1.1c1.2-0.4,2.7-1.1,4.1-2.1
			c2.5-1.9,4-4.5,3.9-8c-0.1-1.9-0.7-3.9-1.5-5.7c0.2-0.3,0.5-0.7,0.7-1c4-5.8,7.1-12.2,7.1-12.2s0.3,2,1.2,5.2
			c0.5,1.6,1.4,3.4,2.3,5.2c-3.7,3-6.1,6.6-6.9,8.9c-1.5,4.3-0.3,6.2,1.9,6.7c1,0.2,2.4-0.3,3.4-0.7c1.3-0.4,2.9-1.2,4.4-2.2
			c2.5-1.9,4.9-4.5,4.8-8c-0.1-1.6-0.5-3.2-1.1-4.7c3.2-1.3,7.3-2.1,12.5-1.4c11.2,1.3,13.4,8.3,13,11.2c-0.4,2.9-2.8,4.5-3.6,5
			s-1,0.7-1,1c0.1,0.5,0.5,0.5,1.1,0.4c0.9-0.2,5.9-2.4,6.1-7.8C181.2,123.7,174.6,116.1,162.9,116.2L162.9,116.2z"/>
	</g>
</g>
</svg>
