<svg version="1.1" id="Layer_1" xmlns="http://www.w3.org/2000/svg" xmlns:xlink="http://www.w3.org/1999/xlink" x="0px" y="0px" 
	viewBox="0 0 232 232" enable-background="new 0 0 232 232" preserveAspectRatio="xMidYMid meet" xml:space="preserve">
<path fill="#288773" d="M232,116c0,3.728-6.665,7.101-7.021,10.74c-0.358,3.704,5.523,8.3,4.811,11.894
	c-0.721,3.644-7.914,5.654-8.979,9.163c-1.075,3.551,3.793,9.215,2.385,12.606c-1.42,3.423-8.866,3.98-10.603,7.222
	c-1.747,3.262,1.915,9.769-0.136,12.829c-2.056,3.072-9.469,2.168-11.807,5.013c-2.346,2.854-0.02,9.949-2.63,12.557
	c-2.605,2.61-9.702,0.284-12.555,2.628c-2.849,2.34-1.942,9.752-5.015,11.81c-3.059,2.05-9.565-1.615-12.829,0.133
	c-3.24,1.735-3.797,9.186-7.218,10.605c-3.393,1.405-9.056-3.46-12.605-2.383c-3.509,1.062-5.52,8.257-9.164,8.979
	c-3.591,0.711-8.19-5.176-11.895-4.813c-3.637,0.354-7.008,7.018-10.738,7.018c-3.73,0-7.104-6.663-10.74-7.018
	c-3.705-0.362-8.304,5.524-11.896,4.813c-3.644-0.723-5.655-7.917-9.165-8.981c-3.549-1.075-9.211,3.79-12.607,2.385
	c-3.42-1.42-3.977-8.87-7.22-10.605c-3.262-1.748-9.77,1.915-12.828-0.133c-3.073-2.058-2.166-9.472-5.014-11.812
	c-2.854-2.344-9.95-0.016-12.557-2.626c-2.609-2.609-0.281-9.704-2.625-12.557c-2.341-2.849-9.753-1.944-11.81-5.013
	c-2.048-3.062,1.613-9.567-0.131-12.829c-1.738-3.243-9.185-3.801-10.604-7.222c-1.408-3.394,3.459-9.056,2.382-12.606
	c-1.062-3.509-8.257-5.52-8.979-9.163c-0.71-3.594,5.174-8.189,4.813-11.896C6.663,123.101,0,119.728,0,116
	c0-3.73,6.663-7.102,7.019-10.74c0.361-3.705-5.523-8.304-4.813-11.893c0.723-3.644,7.917-5.655,8.979-9.164
	c1.077-3.552-3.79-9.214-2.382-12.608c1.419-3.423,8.866-3.981,10.604-7.221c1.747-3.262-1.915-9.769,0.133-12.83
	c2.055-3.07,9.471-2.166,11.81-5.013c2.345-2.853,0.019-9.949,2.626-12.557c2.609-2.608,9.705-0.281,12.557-2.627
	c2.85-2.338,1.943-9.752,5.014-11.81c3.061-2.047,9.566,1.615,12.828-0.132c3.242-1.737,3.802-9.186,7.221-10.603
	c3.393-1.407,9.057,3.459,12.606,2.382c3.51-1.062,5.519-8.256,9.165-8.978c3.589-0.71,8.189,5.173,11.894,4.813
	c3.636-0.356,7.01-7.02,10.74-7.02c3.73,0,7.102,6.664,10.738,7.02c3.704,0.36,8.304-5.523,11.895-4.813
	c3.645,0.722,5.655,7.916,9.164,8.981c3.55,1.074,9.213-3.792,12.607-2.385c3.421,1.419,3.978,8.868,7.222,10.605
	c3.26,1.747,9.769-1.917,12.827,0.133c3.07,2.056,2.164,9.471,5.011,11.811c2.853,2.344,9.951,0.017,12.561,2.625
	c2.606,2.61,0.278,9.704,2.624,12.559c2.34,2.845,9.751,1.94,11.807,5.013c2.051,3.059-1.611,9.565,0.136,12.83
	c1.736,3.238,9.183,3.796,10.603,7.217c1.408,3.396-3.46,9.058-2.385,12.608c1.065,3.509,8.261,5.52,8.979,9.164
	c0.713,3.589-5.169,8.188-4.811,11.893C225.335,108.898,232,112.27,232,116z"/>
<path fill="#5AC2AC" d="M115.595,207.882c-50.661,0-91.879-41.22-91.879-91.882c0-50.663,41.219-91.879,91.879-91.879
	c50.662,0,91.882,41.216,91.882,91.879C207.477,166.663,166.257,207.882,115.595,207.882z M115.595,25.1
	c-50.121,0-90.898,40.777-90.898,90.9c0,50.123,40.777,90.901,90.898,90.901c50.122,0,90.9-40.778,90.9-90.901
	C206.495,65.877,165.717,25.1,115.595,25.1z"/>
<path fill="#5AC2AC" d="M115.595,14.586C59.586,14.586,14.183,59.991,14.183,116c0,56.011,45.403,101.415,101.412,101.415
	c56.011,0,101.414-45.403,101.414-101.415C217.009,59.991,171.605,14.586,115.595,14.586z M115.595,214.458
	c-54.375,0-98.455-44.08-98.455-98.458c0-54.376,44.08-98.457,98.455-98.457c54.377,0,98.457,44.081,98.457,98.457
	C214.052,170.377,169.972,214.458,115.595,214.458z"/>
<g>
	<g>
		
			<linearGradient id="SVGID_1_" gradientUnits="userSpaceOnUse" x1="-1161.521" y1="917.5669" x2="-1161.521" y2="917.3374" gradientTransform="matrix(448 0 0 -448 520475.5938 411134.875)">
			<stop  offset="0" style="stop-color:#4E4E4E"/>
			<stop  offset="1" style="stop-color:#454545"/>
		</linearGradient>
		<path fill="url(#SVGID_1_)" d="M69.054,65.062h89.883c3.545,0,6.419,2.875,6.419,6.42v89.884c0,3.545-2.874,6.419-6.419,6.419
			H69.054c-3.545,0-6.42-2.874-6.42-6.419V71.481C62.634,67.936,65.508,65.062,69.054,65.062z"/>
		
			<linearGradient id="SVGID_2_" gradientUnits="userSpaceOnUse" x1="-1160.1748" y1="921.8286" x2="-1160.1552" y2="921.9272" gradientTransform="matrix(256 0 0 -170.6667 297116.4062 157467.4531)">
			<stop  offset="0" style="stop-color:#F8971D"/>
			<stop  offset="0.53" style="stop-color:#F38F20"/>
			<stop  offset="1" style="stop-color:#CD7028"/>
		</linearGradient>
		<path fill="url(#SVGID_2_)" d="M143.344,116.679c0-0.894-0.66-1.409-1.471-1.153l-55.756,17.688
			c-0.812,0.257-1.471,1.192-1.471,2.084v18.076c0,0.894,0.659,1.411,1.471,1.153l55.756-17.685
			c0.811-0.258,1.471-1.192,1.471-2.086V116.679L143.344,116.679z"/>
		<path fill="#F8981D" d="M84.646,116.204c0,0.894,0.659,1.828,1.471,2.086l55.758,17.688c0.812,0.256,1.47-0.261,1.47-1.152
			v-18.077c0-0.892-0.658-1.827-1.47-2.084L86.116,96.977c-0.812-0.257-1.471,0.258-1.471,1.152V116.204z"/>
		<path fill="#F8981D" d="M143.344,79.58c0-0.894-0.66-1.411-1.471-1.154L86.117,96.112c-0.812,0.258-1.471,1.192-1.471,2.086
			v18.076c0,0.894,0.659,1.409,1.471,1.154l55.756-17.687c0.811-0.258,1.471-1.192,1.471-2.085V79.58z"/>
	</g>
</g>
</svg>
