<svg version="1.1" id="Layer_1" xmlns="http://www.w3.org/2000/svg" xmlns:xlink="http://www.w3.org/1999/xlink" x="0px" y="0px" viewBox="0 0 232 232" enable-background="new 0 0 232 232" reserveAspectRatio="xMidYMid meet" xml:space="preserve">
<path fill="#464342" d="M232,116c0,3.728-6.664,7.102-7.021,10.739c-0.357,3.705,5.523,8.301,4.811,11.894
	c-0.721,3.644-7.914,5.655-8.977,9.164c-1.078,3.55,3.791,9.214,2.383,12.606c-1.42,3.422-8.867,3.98-10.604,7.221
	c-1.746,3.264,1.916,9.77-0.135,12.83c-2.057,3.072-9.469,2.167-11.807,5.013c-2.346,2.854-0.02,9.948-2.631,12.557
	c-2.604,2.61-9.701,0.284-12.553,2.628c-2.85,2.34-1.943,9.752-5.016,11.809c-3.059,2.051-9.564-1.615-12.83,0.133
	c-3.24,1.735-3.797,9.186-7.217,10.605c-3.393,1.406-9.057-3.46-12.605-2.383c-3.51,1.062-5.52,8.258-9.164,8.98
	c-3.592,0.71-8.191-5.176-11.895-4.814c-3.637,0.355-7.008,7.018-10.739,7.018c-3.73,0-7.104-6.662-10.738-7.018
	c-3.706-0.361-8.306,5.524-11.896,4.814c-3.645-0.723-5.655-7.918-9.166-8.982c-3.548-1.075-9.211,3.791-12.605,2.385
	c-3.421-1.42-3.977-8.87-7.222-10.605c-3.263-1.748-9.769,1.916-12.827-0.133c-3.074-2.057-2.166-9.471-5.015-11.811
	c-2.853-2.343-9.952-0.016-12.558-2.626c-2.607-2.61-0.279-9.704-2.625-12.557c-2.34-2.85-9.753-1.944-11.81-5.013
	c-2.048-3.062,1.614-9.566-0.131-12.83c-1.739-3.242-9.186-3.801-10.604-7.221c-1.408-3.395,3.458-9.057,2.381-12.606
	c-1.062-3.509-8.258-5.521-8.979-9.164c-0.708-3.593,5.174-8.188,4.812-11.896C6.662,123.102,0,119.728,0,116
	c0-3.73,6.662-7.103,7.018-10.74c0.361-3.705-5.521-8.305-4.812-11.894c0.722-3.644,7.918-5.655,8.979-9.164
	c1.077-3.552-3.789-9.214-2.381-12.608c1.419-3.423,8.865-3.98,10.604-7.221c1.747-3.261-1.915-9.769,0.133-12.83
	c2.055-3.07,9.472-2.166,11.81-5.013c2.346-2.853,0.02-9.948,2.625-12.556c2.609-2.608,9.707-0.281,12.558-2.627
	c2.851-2.337,1.944-9.752,5.015-11.81c3.061-2.047,9.564,1.614,12.827-0.132c3.243-1.737,3.803-9.186,7.222-10.604
	c3.393-1.406,9.058,3.459,12.605,2.382c3.511-1.062,5.52-8.256,9.166-8.977c3.589-0.711,8.188,5.173,11.895,4.812
	C108.897,6.663,112.271,0,116.001,0c3.731,0,7.102,6.663,10.739,7.02c3.703,0.361,8.303-5.523,11.895-4.812
	c3.645,0.721,5.654,7.916,9.164,8.98c3.549,1.075,9.213-3.791,12.607-2.385c3.42,1.42,3.977,8.869,7.221,10.605
	c3.262,1.746,9.77-1.917,12.828,0.133c3.07,2.055,2.164,9.471,5.012,11.811c2.852,2.344,9.951,0.017,12.559,2.625
	c2.607,2.61,0.279,9.704,2.625,12.558c2.34,2.846,9.75,1.941,11.807,5.013c2.051,3.059-1.611,9.566,0.135,12.83
	c1.736,3.239,9.184,3.796,10.604,7.217c1.408,3.396-3.461,9.058-2.383,12.608c1.062,3.509,8.258,5.52,8.977,9.164
	c0.713,3.589-5.168,8.188-4.811,11.894C225.335,108.898,232,112.27,232,116z"/>
<path fill="#6E6968" d="M115.595,207.883c-50.66,0-91.88-41.22-91.88-91.883c0-50.664,41.22-91.88,91.88-91.88
	c50.663,0,91.881,41.216,91.881,91.88C207.476,166.664,166.257,207.883,115.595,207.883z M115.595,25.099
	c-50.121,0-90.898,40.778-90.898,90.902c0,50.124,40.777,90.901,90.898,90.901c50.122,0,90.901-40.777,90.901-90.901
	C206.496,65.877,165.716,25.099,115.595,25.099z"/>
<path fill="#6E6968" d="M115.595,14.586C59.586,14.586,14.185,59.99,14.185,116c0,56.011,45.401,101.414,101.41,101.414
	c56.01,0,101.415-45.403,101.415-101.414C217.009,59.99,171.605,14.586,115.595,14.586z M115.595,214.458
	c-54.375,0-98.455-44.079-98.455-98.457c0-54.376,44.08-98.458,98.455-98.458c54.377,0,98.458,44.082,98.458,98.458
	C214.052,170.378,169.972,214.458,115.595,214.458z"/>
<defs>
	<filter id="Adobe_OpacityMaskFilter" filterUnits="userSpaceOnUse" x="61.739" y="62.158" width="103.579" height="102.982">
		<feColorMatrix  type="matrix" values="1 0 0 0 0  0 1 0 0 0  0 0 1 0 0  0 0 0 1 0"/>
	</filter>
</defs>
<mask maskUnits="userSpaceOnUse" x="61.739" y="62.158" width="103.579" height="102.982" id="mask0_2_">
	<path fill="#FFFFFF" filter="url(#Adobe_OpacityMaskFilter)" d="M135.207,164.7c1.631,0.636,3.49,0.595,5.137-0.197l21.311-10.255
		c2.24-1.077,3.664-3.344,3.664-5.831V78.881c0-2.486-1.424-4.752-3.664-5.831l-21.311-10.255c-2.16-1.039-4.688-0.784-6.583,0.594
		c-0.271,0.196-0.529,0.417-0.771,0.658l-40.8,37.224L74.418,87.78c-1.654-1.256-3.968-1.153-5.504,0.245l-5.7,5.185
		c-1.879,1.709-1.882,4.666-0.005,6.379l15.412,14.06L63.208,127.71c-1.877,1.712-1.875,4.668,0.005,6.378l5.7,5.185
		c1.537,1.398,3.85,1.5,5.504,0.245l17.771-13.49l40.8,37.223C133.634,163.896,134.393,164.382,135.207,164.7z M139.456,90.149
		l-30.958,23.5l30.958,23.5V90.149z"/>
</mask>
<g mask="url(#mask0_2_)">
	<path fill="#0265A9" d="M161.654,73.067l-21.328-10.27c-2.468-1.188-5.419-0.688-7.356,1.25L63.146,127.71
		c-1.878,1.712-1.875,4.668,0.005,6.378l5.703,5.185c1.538,1.398,3.853,1.5,5.508,0.245l84.083-63.787
		c2.82-2.14,6.873-0.128,6.873,3.413v-0.248C165.318,76.411,163.894,74.145,161.654,73.067z"/>
	<g>
		<path fill="#2479BF" d="M161.654,154.231l-21.328,10.27c-2.468,1.188-5.419,0.688-7.356-1.25L63.146,99.587
			c-1.878-1.712-1.875-4.668,0.005-6.377l5.703-5.185c1.538-1.398,3.853-1.5,5.508-0.245l84.083,63.786
			c2.82,2.141,6.873,0.13,6.873-3.412v0.247C165.318,150.887,163.894,153.154,161.654,154.231z"/>
	</g>
	<g>
		<path fill="#4497D2" d="M140.327,164.502c-2.469,1.188-5.419,0.686-7.356-1.252c2.387,2.387,6.469,0.696,6.469-2.681V66.727
			c0-3.376-4.082-5.067-6.469-2.68c1.938-1.937,4.888-2.439,7.356-1.251l21.325,10.255c2.242,1.078,3.666,3.344,3.666,5.831v69.535
			c0,2.487-1.424,4.754-3.666,5.831L140.327,164.502z"/>
	</g>
</g>
</svg>
