<svg version="1.1" id="Layer_1" xmlns="http://www.w3.org/2000/svg" xmlns:xlink="http://www.w3.org/1999/xlink" x="0px" y="0px" viewBox="0 0 232 232" enable-background="new 0 0 232 232" reserveAspectRatio="xMidYMid meet" xml:space="preserve">
<path fill="#7FC24E" d="M232,116c0,3.7-6.7,7.1-7,10.7c-0.4,3.7,5.5,8.3,4.8,11.9c-0.7,3.6-7.9,5.7-9,9.2c-1.1,3.5,3.8,9.2,2.4,12.6
	c-1.4,3.4-8.9,4-10.6,7.2c-1.7,3.3,1.9,9.8-0.1,12.8c-2.1,3.1-9.5,2.2-11.8,5c-2.3,2.9,0,9.9-2.6,12.6c-2.6,2.6-9.7,0.3-12.6,2.6
	c-2.8,2.3-1.9,9.8-5,11.8c-3.1,2-9.6-1.6-12.8,0.1c-3.2,1.7-3.8,9.2-7.2,10.6c-3.4,1.4-9.1-3.5-12.6-2.4c-3.5,1.1-5.5,8.3-9.2,9
	c-3.6,0.7-8.2-5.2-11.9-4.8c-3.6,0.4-7,7-10.7,7c-3.7,0-7.1-6.7-10.7-7c-3.7-0.4-8.3,5.5-11.9,4.8c-3.6-0.7-5.7-7.9-9.2-9
	c-3.5-1.1-9.2,3.8-12.6,2.4c-3.4-1.4-4-8.9-7.2-10.6c-3.3-1.7-9.8,1.9-12.8-0.1c-3.1-2.1-2.2-9.5-5-11.8c-2.9-2.3-9.9,0-12.6-2.6
	c-2.6-2.6-0.3-9.7-2.6-12.6c-2.3-2.8-9.8-1.9-11.8-5c-2-3.1,1.6-9.6-0.1-12.8c-1.7-3.2-9.2-3.8-10.6-7.2c-1.4-3.4,3.5-9.1,2.4-12.6
	c-1.1-3.5-8.3-5.5-9-9.2c-0.7-3.6,5.2-8.2,4.8-11.9c-0.4-3.6-7-7-7-10.7c0-3.7,6.7-7.1,7-10.7c0.4-3.7-5.5-8.3-4.8-11.9
	c0.7-3.6,7.9-5.7,9-9.2c1.1-3.6-3.8-9.2-2.4-12.6c1.4-3.4,8.9-4,10.6-7.2c1.7-3.3-1.9-9.8,0.1-12.8c2.1-3.1,9.5-2.2,11.8-5
	c2.3-2.9,0-9.9,2.6-12.6c2.6-2.6,9.7-0.3,12.6-2.6c2.9-2.3,1.9-9.8,5-11.8c3.1-2,9.6,1.6,12.8-0.1c3.2-1.7,3.8-9.2,7.2-10.6
	c3.4-1.4,9.1,3.5,12.6,2.4c3.5-1.1,5.5-8.3,9.2-9c3.6-0.7,8.2,5.2,11.9,4.8c3.6-0.4,7-7,10.7-7c3.7,0,7.1,6.7,10.7,7
	c3.7,0.4,8.3-5.5,11.9-4.8c3.6,0.7,5.7,7.9,9.2,9c3.6,1.1,9.2-3.8,12.6-2.4c3.4,1.4,4,8.9,7.2,10.6c3.3,1.7,9.8-1.9,12.8,0.1
	c3.1,2.1,2.2,9.5,5,11.8c2.9,2.3,10,0,12.6,2.6c2.6,2.6,0.3,9.7,2.6,12.6c2.3,2.8,9.8,1.9,11.8,5c2.1,3.1-1.6,9.6,0.1,12.8
	c1.7,3.2,9.2,3.8,10.6,7.2c1.4,3.4-3.5,9.1-2.4,12.6c1.1,3.5,8.3,5.5,9,9.2c0.7,3.6-5.2,8.2-4.8,11.9C225.3,108.9,232,112.3,232,116
	z"/>
<path fill="#ABD271" d="M116,207.9c-50.7,0-91.9-41.2-91.9-91.9c0-50.7,41.2-91.9,91.9-91.9c50.7,0,91.9,41.2,91.9,91.9
	C207.9,166.7,166.7,207.9,116,207.9z M116,25.1c-50.1,0-90.9,40.8-90.9,90.9c0,50.1,40.8,90.9,90.9,90.9c50.1,0,90.9-40.8,90.9-90.9
	C206.9,65.9,166.1,25.1,116,25.1z"/>
<path fill="#ABD271" d="M115.9,14.6C59.9,14.6,14.5,60,14.5,116c0,56,45.4,101.4,101.4,101.4c56,0,101.4-45.4,101.4-101.4
	C217.3,60,171.9,14.6,115.9,14.6z M115.9,214.5c-54.4,0-98.5-44.1-98.5-98.5c0-54.4,44.1-98.5,98.5-98.5c54.4,0,98.5,44.1,98.5,98.5
	C214.4,170.4,170.3,214.5,115.9,214.5z"/>
<ellipse fill-rule="evenodd" clip-rule="evenodd" fill="#474443" cx="116.1" cy="113.3" rx="72" ry="71.5"/>
<path fill-rule="evenodd" clip-rule="evenodd" fill="#7FC24E" d="M152,62.4c2.1,1.5,4.2,3.2,6.1,4.9c-2.2-0.1-4.3,0.4-6.1,1.5V62.4
	L152,62.4z M152,91.8c4.4,7.3,9.2,15.6,3,34.4l-3,9.3V91.8L152,91.8z M152,176.3c21.8-12.5,36.5-36.1,36.5-63s-14.7-50.5-36.5-63v5
	c19.3,12.1,32.2,33.5,32.2,58s-12.9,45.9-32.2,58V176.3L152,176.3z M152,164.2c15.9-11.3,26.3-29.9,26.3-50.9
	c0-10.7-2.7-20.9-7.5-29.7l0,0c0.3,9.3-2.5,20.8-5.5,29.4L152,150.7V164.2z M117.3,50.9c12.9,0.3,24.9,4.5,34.7,11.5v6.4
	c-2.8,1.6-4.9,4.6-5,9.1c-0.2,5.7,2.3,9.6,5,14v43.6l-5.2,15.7l-22.3-65.7c-0.3-1,0.1-1.6,1.3-1.6h6.3c0.3,0,0.6-0.3,0.6-0.6v-3.7
	c0-0.3-0.3-0.6-0.6-0.6c-4.9,0.2-9.9,0.4-14.9,0.4V50.9L117.3,50.9z M152,50.3c-10.3-5.9-22.1-9.3-34.7-9.6V45
	c12.7,0.3,24.6,4,34.7,10.3V50.3L152,50.3z M152,150.7l-6.2,17.4c2.1-1.2,4.2-2.4,6.2-3.9V150.7L152,150.7z M152,171.3v5
	c-10.3,5.9-22.1,9.3-34.7,9.6v-4.3C130,181.3,141.9,177.6,152,171.3L152,171.3z M117.3,175.7c6.9-0.2,13.4-1.4,19.5-3.6l0,0
	l-19.5-53.4V175.7z M115.9,50.9c0.4,0,0.9,0,1.3,0v28.3c-6.9,0.1-13.8-0.1-20.7-0.4c-0.3,0-0.6,0.3-0.6,0.6v3.7
	c0,0.4,0.3,0.6,0.6,0.6h6.3c1.4,0,1.8,0.5,2.1,1.4l9.2,25.1l-13.8,41.6L77.8,85.1c-0.3-0.8,0.1-1.3,0.8-1.3h7.2
	c0.3,0,0.6-0.3,0.6-0.6v-3.7c0-0.3-0.3-0.6-0.6-0.6c-3.2,0.2-6.3,0.3-9.5,0.4V65C87.2,56.2,100.9,50.9,115.9,50.9L115.9,50.9
	L115.9,50.9z M117.3,40.7c-0.5,0-0.9,0-1.3,0l0,0c-14.6,0-28.1,4.3-39.5,11.7v5.2C87.5,49.7,101.2,45,115.9,45l0,0
	c0.4,0,0.9,0,1.3,0V40.7L117.3,40.7z M117.3,118.7l-0.3-0.8L97.8,173c5.7,1.7,11.8,2.7,18.1,2.7c0.4,0,0.9,0,1.3,0V118.7
	L117.3,118.7z M117.3,181.6v4.3c-0.5,0-0.9,0-1.3,0c-14.6,0-28.1-4.3-39.5-11.7V169c11.1,7.9,24.8,12.6,39.5,12.6
	C116.4,181.6,116.8,181.6,117.3,181.6L117.3,181.6z M76.4,161.6c3.9,3.2,8.2,6,12.8,8.2l0,0l-12.8-35.1V161.6z M76.4,79.2
	c-4.4,0.1-8.7,0.2-12.8,0.2c3.5-5.4,7.8-10.3,12.8-14.3V79.2L76.4,79.2z M76.4,52.4c-19.9,12.9-33,35.4-33,60.9
	c0,25.5,13.1,47.9,33,60.9V169c-17.4-12.4-28.7-32.7-28.7-55.7S59,70,76.4,57.6V52.4L76.4,52.4z M76.4,134.6v27
	c-13.9-11.4-22.8-28.8-22.8-48.3c0-9.2,2-18,5.6-25.9L76.4,134.6z"/>
</svg>
